<?xml version="1.0" encoding="UTF-8" standalone="no"?>
<svg
   version="1.1"
   id="svg29"
   sodipodi:docname="atlus.svg"
   inkscape:version="1.3.2 (091e20e, 2023-11-25, custom)"
   xmlns:inkscape="http://www.inkscape.org/namespaces/inkscape"
   xmlns:sodipodi="http://sodipodi.sourceforge.net/DTD/sodipodi-0.dtd"
   xmlns="http://www.w3.org/2000/svg"
   xmlns:svg="http://www.w3.org/2000/svg"
   xmlns:rdf="http://www.w3.org/1999/02/22-rdf-syntax-ns#"
   xmlns:cc="http://creativecommons.org/ns#"
   xmlns:dc="http://purl.org/dc/elements/1.1/">
  <metadata
     id="metadata35">
    <rdf:RDF>
      <cc:Work
         rdf:about="">
        <dc:format>image/svg+xml</dc:format>
        <dc:type
           rdf:resource="http://purl.org/dc/dcmitype/StillImage" />
        <dc:title>mainlogo</dc:title>
      </cc:Work>
    </rdf:RDF>
  </metadata>
  <defs
     id="defs33" />
  <sodipodi:namedview
     pagecolor="#ffffff"
     bordercolor="#666666"
     borderopacity="1"
     objecttolerance="10"
     gridtolerance="10"
     guidetolerance="10"
     inkscape:pageopacity="0"
     inkscape:pageshadow="2"
     inkscape:window-width="1920"
     inkscape:window-height="1017"
     id="namedview31"
     showgrid="false"
     inkscape:pagecheckerboard="true"
     inkscape:zoom="1.9496261"
     inkscape:cx="252.61254"
     inkscape:cy="48.470832"
     inkscape:window-x="-8"
     inkscape:window-y="-8"
     inkscape:window-maximized="1"
     inkscape:current-layer="svg29"
     inkscape:showpageshadow="0"
     inkscape:deskcolor="#505050" />
  <title
     id="title14">mainlogo</title>
  <g
     id="g125"
     transform="matrix(1.4955135,0,0,1.4955135,-74.303372,35.360133)"
     style="fill:#ffffff;stroke:none">
    <path
       d="m 162.04363,81.887502 h 18.59239 V 7.5179195 h 13.75328 v -16.55487 h -46.09896 v 16.55487 h 13.75329 z"
       style="font-style:normal;font-variant:normal;font-weight:bold;font-stretch:condensed;font-size:356.62936401px;line-height:125%;font-family:Folio;-inkscape-font-specification:'Folio Bold Condensed';letter-spacing:0px;word-spacing:0px;fill:#ffffff;fill-opacity:1;stroke:none;stroke-width:0.35707989px;stroke-linecap:butt;stroke-linejoin:miter;stroke-opacity:1"
       id="path4198"
       inkscape:connector-curvature="0" />
    <path
       d="M 249.30838,81.887502 V 65.332632 H 229.69722 V -9.0369505 H 211.10483 V 81.887502 Z"
       style="font-style:normal;font-variant:normal;font-weight:bold;font-stretch:condensed;font-size:356.62936401px;line-height:125%;font-family:Folio;-inkscape-font-specification:'Folio Bold Condensed';letter-spacing:0px;word-spacing:0px;fill:#ffffff;fill-opacity:1;stroke:none;stroke-width:0.35707989px;stroke-linecap:butt;stroke-linejoin:miter;stroke-opacity:1"
       id="path4200"
       inkscape:connector-curvature="0" />
    <path
       d="M 315.33782,-9.0369505 H 296.74543 V 59.474754 c 0,6.367256 -1.52815,7.64071 -5.3485,7.64071 -3.82036,0 -5.3485,-1.273454 -5.3485,-7.64071 V -9.0369505 H 267.45604 V 62.276346 c 0,17.064255 7.64071,21.393988 23.94089,21.393988 16.30018,0 23.94089,-4.329733 23.94089,-21.393988 z"
       style="font-style:normal;font-variant:normal;font-weight:bold;font-stretch:condensed;font-size:356.62936401px;line-height:125%;font-family:Folio;-inkscape-font-specification:'Folio Bold Condensed';letter-spacing:0px;word-spacing:0px;fill:#ffffff;fill-opacity:1;stroke:none;stroke-width:0.35707989px;stroke-linecap:butt;stroke-linejoin:miter;stroke-opacity:1"
       id="path4202"
       inkscape:connector-curvature="0" />
    <path
       d="m 383.27911,18.342261 v -7.131328 c 0,-16.1728378 -7.64071,-22.030716 -23.43152,-22.030716 -17.82832,0 -23.94089,6.8766379 -23.94089,23.176821 0,30.308152 29.16205,28.397974 29.28939,47.245058 0,5.348499 -1.52814,7.513368 -5.3485,7.513368 -3.693,0 -5.34849,-2.292214 -5.34849,-7.513368 V 53.23484 h -18.5924 v 8.532124 c 0,16.809564 6.87664,21.90337 23.81355,21.90337 18.21036,0 24.06824,-5.857878 24.06824,-24.832307 0,-29.671425 -29.28939,-29.671425 -29.28939,-45.589572 0,-5.3484992 1.52814,-7.5133675 5.34849,-7.5133675 3.69301,0 5.3485,2.2922137 5.3485,7.5133675 v 5.093806 z"
       style="font-style:normal;font-variant:normal;font-weight:bold;font-stretch:condensed;font-size:356.62936401px;line-height:125%;font-family:Folio;-inkscape-font-specification:'Folio Bold Condensed';letter-spacing:0px;word-spacing:0px;fill:#ffffff;fill-opacity:1;stroke:none;stroke-width:0.35707989px;stroke-linecap:butt;stroke-linejoin:miter;stroke-opacity:1"
       id="path4204"
       inkscape:connector-curvature="0" />
    <path
       inkscape:connector-curvature="0"
       id="path3395"
       d="M 50.308054,81.307692 H 71.838732 L 111.99517,19.449664 v 61.858028 h 18.28399 V -8.7452808 h -21.35981 z"
       style="fill:#ffffff;fill-opacity:1;fill-rule:evenodd;stroke:none;stroke-width:0.67664403px;stroke-linecap:butt;stroke-linejoin:miter;stroke-opacity:1" />
  </g>
</svg>
