<?xml version="1.0" encoding="UTF-8" standalone="no"?>
<svg
   version="1.1"
   viewBox="0 0 3839 761.19999"
   id="svg11"
   sodipodi:docname="capcom.svg"
   inkscape:version="1.3.2 (091e20e, 2023-11-25, custom)"
   width="3839"
   height="761.20001"
   xmlns:inkscape="http://www.inkscape.org/namespaces/inkscape"
   xmlns:sodipodi="http://sodipodi.sourceforge.net/DTD/sodipodi-0.dtd"
   xmlns="http://www.w3.org/2000/svg"
   xmlns:svg="http://www.w3.org/2000/svg">
  <defs
     id="defs11" />
  <sodipodi:namedview
     id="namedview11"
     pagecolor="#505050"
     bordercolor="#ffffff"
     borderopacity="1"
     inkscape:showpageshadow="0"
     inkscape:pageopacity="0"
     inkscape:pagecheckerboard="1"
     inkscape:deskcolor="#505050"
     inkscape:zoom="0.33836937"
     inkscape:cx="1919.5"
     inkscape:cy="545.26212"
     inkscape:window-width="1920"
     inkscape:window-height="1017"
     inkscape:window-x="-8"
     inkscape:window-y="-8"
     inkscape:window-maximized="1"
     inkscape:current-layer="svg11" />
  <path
     class="st1"
     d="m 3838.3,533 -23,1.6 c -1.1,0.1 -4.1,-0.2 -5.5,-1.4 -3.1,-2.7 -5.1,-7.2 -6.4,-13.7 l -45.2,-288.9 c -2.2,-14 -1.1,-17.5 16.1,-25.8 l 12.1,-5.9 V 17.8 H 3425.5 L 3414,57 3398.6,17.8 H 3049.3 V 127.1 C 2979.2,46.5 2873.5,0 2755.3,0 2633.2,0 2518.7,45.4 2443.2,122.5 2379.9,42.8 2280.3,0.8 2153.5,0.8 2036.8,0.8 1939.3,46.1 1863.3,135.7 1812.4,54.4 1753.9,17.8 1600,17.8 h -346.5 v 171.1 l 0.2,16.1 15.4,4.5 c 2.2,0.6 6.5,2.4 10.1,4.8 3,2 5,5.2 5.4,8.8 0.2,1.5 0.3,3.4 0.3,5.7 0,6 -0.4,154.4 -0.6,248.7 L 1106.8,17.8 H 845.3 l -166.5,441 v -24 H 513.1 l -15.3,0.2 -5,14.4 c -1.3,3.8 -14.5,37.5 -60.9,37.5 -52.6,0 -110.9,-43.5 -114.6,-139.1 -1.8,-47.8 23.9,-78.4 46.4,-90.1 3.8,-2 7.4,-3.5 10.5,-4.5 10,-3.5 19.6,6.1 16.1,16.1 -1.6,4.5 -4.8,9.9 -10.5,16.3 l -19,18.2 155.3,107 L 718.6,196 711.7,182.5 C 707.9,175.2 616.8,2.5 387.9,2.5 163.1,2.5 0,161 0,379.3 0,583.9 183.8,744.1 418.3,744.1 h 1209.8 l -0.1,-182.7 -17.8,-3.1 c -2.2,-0.4 -4.5,-0.9 -6.8,-1.5 84.3,-22.2 159.4,-65.7 201.2,-96.1 56.1,173.3 216,283.5 416.5,283.5 h 238.2 v -91.4 c 51.5,42.4 153,108.4 285.8,108.4 102.4,0 188.3,-46.3 234.1,-77.1 v 60.5 h 348.5 V 618.3 H 3471 v 125.8 h 368 V 556 Z m -20.8,189.6 h -325 V 596.8 H 3306.3 V 722.9 H 3000.7 V 641 c 0,0 -111.7,98.6 -255.6,98.6 -184.2,0 -307.2,-136 -307.2,-136 v 119 c 0,0 -13.5,0 -216.7,0 -192.8,0 -358.4,-106 -404.6,-299.1 -21.9,21 -118.5,90.3 -234.5,116.4 -9,2 -13.5,5.5 -13.5,15.3 0,17.9 38.1,24.3 38.1,24.3 v 143.2 c 0,0 -1002.1,0 -1188.4,0 C 198.2,722.7 21.4,571.4 21.4,379.4 21.4,187.4 159.3,24 387.8,24 606.2,24 692.5,192.3 692.5,192.3 L 513.1,382.7 394.6,301 c 0,0 38.9,-37.4 3.4,-64.6 -27.8,-21.2 -105.5,23.8 -102.2,112.2 3.9,101.9 66.7,159.7 136.1,159.7 64.3,0 81.2,-52.1 81.2,-52.1 h 144.3 v 120.1 l 202.8,-537 h 231.9 L 1278.3,522 c 0,0 13.5,25.5 27.1,32.3 0,0 0.8,-316.7 0.8,-325.6 0,-8.9 -1.2,-18.7 -6.7,-25 -9.1,-10.5 -24.5,-14.9 -24.5,-14.9 V 39.3 c 0,0 214.9,0 325,0 168.5,0 211.8,45.9 260.7,134.3 67.5,-91.2 160.4,-151.3 292.9,-151.3 136.4,0 232.8,50.4 287.8,134.3 76.9,-92.3 200.8,-135.1 314,-135.1 139.2,0 255.6,67.7 315.7,172.5 V 39.3 h 313.2 l 33,84.1 24.6,-84.1 h 323.3 v 146.2 c -22.9,11.1 -32.1,22.3 -28,48.5 l 45.2,288.9 c 1.9,9.4 5.2,19.2 13.2,26.4 9.4,8.4 22,6.8 22,6.8 v 166.5 z"
     style="fill:#ffffff"
     id="path5" />
  <path
     class="st1"
     d="m 903.3,103.8 h 144.8 l 176.1,462.4 c 5.1,12.7 13.5,24.6 22,34.9 8.4,10.2 28.8,17 28.8,17 V 658 h -212.5 v -40.8 c 0,0 13.5,1.7 20.3,-10.2 6.8,-11.9 6.8,-21.3 1.7,-33.2 -5.1,-11.9 -40.6,-106.3 -40.6,-106.3 H 870.3 c 0,0 -35.6,95.2 -39,103.7 -3.4,8.5 -3.4,22.1 0,30.6 5.7,14.2 25.5,16.2 25.5,16.2 v 40 H 686.7 v -40 c 0,0 15.5,-5.3 27,-17 12.7,-12.8 17,-26.4 17,-26.4 L 903.3,103.8 m -4.2,277.1 h 111.7 L 953.3,219.4 Z"
     style="fill:#ffffff"
     id="path6" />
  <path
     class="st1"
     d="m 1342.6,103.8 c 0,0 171,0 270.8,0 99.9,0 199.8,35.7 199.8,151.3 0,115.6 -72.8,156.3 -135.4,185.2 -72.3,33.4 -167.6,59.5 -167.6,59.5 v 88.3 c 0,0 0.8,6 9.3,16.2 8.4,10.2 17.8,12.7 17.8,12.7 v 41 h -196.4 v -40 c 0,0 11.9,-2.6 20.3,-11 8.5,-8.5 10.2,-18.7 10.2,-18.7 V 188.8 c 0,0 0.8,-17 -6,-23.8 -6.8,-6.8 -22.8,-16.1 -22.8,-16.1 v -45.1 m 169.3,83.3 v 236.3 c 0,0 159.1,-66.3 159.1,-159.8 0.1,-115.6 -159.1,-76.5 -159.1,-76.5 z"
     style="fill:#ffffff"
     id="path7" />
  <path
     class="st1"
     d="m 2742.6,673.9 c -182.8,0 -314.3,-134.1 -314.3,-297.2 0,-163.1 134.9,-289.7 314.3,-289.7 179.5,0 314.3,126.5 314.3,289.7 0,163.2 -131.4,297.2 -314.3,297.2 M 2580.1,379.3 c 0,163.2 82.9,204 162.5,204 79.5,0 164.2,-51 164.2,-204 0,-153 -94.8,-204 -164.2,-204 -69.4,0 -162.5,40.8 -162.5,204 z"
     style="fill:#ffffff"
     id="path8" />
  <path
     class="st1"
     d="m 3138.7,104.2 h 201.5 l 72.8,225.7 77.8,-226.1 h 210.8 V 137 c 0,0 -14,5.9 -20.3,13.6 -7.6,9.3 -7.6,16.2 -5.9,29.8 1.7,13.6 55.8,382.4 57.5,396 1.7,13.7 3.4,21.3 6.8,30.6 3.3,9.3 19.4,17 19.4,17 v 34.3 h -202.3 v -36.8 c 0,0 17.8,-2.6 23.7,-11.1 6,-8.5 8.5,-13.6 6.8,-27.2 -1.7,-13.6 -49.9,-323 -49.9,-323 l -88,273.7 h -106.6 l -87.2,-256.7 -44,302.6 c 0,0 -1.7,18.1 5.1,28 9.3,13.7 26.2,13.7 26.2,13.7 V 658 h -175.2 v -39.1 c 0,0 13.9,-2.2 24.1,-14 10.2,-11.9 11.9,-27.2 11.9,-27.2 l 63.9,-399 c 0,0 3.8,-14.9 -0.4,-21.7 -4.4,-7.2 -28.4,-13.2 -28.4,-13.2 v -39.6"
     style="fill:#ffffff"
     id="path9" />
  <path
     class="st1"
     d="m 607.1,195.2 -94.5,99.5 c -5,5.2 -13.1,5.7 -18.7,1.2 l -16.1,-13.2 c -0.7,-0.6 -1.1,-1.6 -1.1,-2.9 0,-3.4 9.3,-11.9 9.3,-28 0,-16.2 -3.3,-83.3 -106.6,-83.3 -103.2,0 -149,96.9 -149,176.8 0,79.9 49.1,226.1 209.9,226.1 93.6,0 113.4,-52.7 113.4,-52.7 h 32.2 v 137.7 h -176 C 200,656.3 83.1,491.4 83.1,372.4 83.1,189.9 241.1,88.7 384.4,88.7 523.3,88.8 607.1,195.2 607.1,195.2"
     style="fill:#ffffff"
     id="path10" />
  <path
     class="st1"
     d="m 2399.8,196.2 -94.5,99.5 c -5,5.2 -13.1,5.7 -18.7,1.2 l -16.1,-13.2 c -0.7,-0.6 -1.1,-1.6 -1.1,-2.9 0,-3.4 9.3,-11.9 9.3,-28 0,-16.2 -3.3,-83.3 -106.6,-83.3 -103.2,0 -149,96.9 -149,176.8 0,79.9 49.1,226.1 209.9,226.1 93.6,0 113.4,-52.7 113.4,-52.7 h 32.2 v 137.7 h -176.1 c -209.9,0 -326.7,-164.9 -326.7,-283.8 0,-182.5 158,-283.7 301.3,-283.7 138.9,-0.2 222.7,106.3 222.7,106.3"
     style="fill:#ffffff"
     id="path11" />
</svg>
