<?xml version="1.0" encoding="UTF-8" standalone="no"?>
<svg
   height="250.93471"
   viewBox="0 0 304.54751 415.36503"
   width="183.98387"
   version="1.1"
   id="svg10"
   sodipodi:docname="cave.svg"
   inkscape:version="1.3.2 (091e20e, 2023-11-25, custom)"
   xmlns:inkscape="http://www.inkscape.org/namespaces/inkscape"
   xmlns:sodipodi="http://sodipodi.sourceforge.net/DTD/sodipodi-0.dtd"
   xmlns="http://www.w3.org/2000/svg"
   xmlns:svg="http://www.w3.org/2000/svg">
  <defs
     id="defs10" />
  <sodipodi:namedview
     id="namedview10"
     pagecolor="#505050"
     bordercolor="#ffffff"
     borderopacity="1"
     inkscape:showpageshadow="0"
     inkscape:pageopacity="0"
     inkscape:pagecheckerboard="1"
     inkscape:deskcolor="#505050"
     inkscape:zoom="2.4799213"
     inkscape:cx="92.34164"
     inkscape:cy="108.6728"
     inkscape:window-width="1920"
     inkscape:window-height="1017"
     inkscape:window-x="-8"
     inkscape:window-y="-8"
     inkscape:window-maximized="1"
     inkscape:current-layer="svg10" />
  <clipPath
     id="a">
    <path
       clip-rule="evenodd"
       d="m 187.087,42.52 h 62.362 v 62.362 h -62.362 z"
       id="path1" />
  </clipPath>
  <clipPath
     id="b">
    <path
       d="m -948.174,452.103 h 141.731 v 158.165 h -141.731 z"
       id="path2" />
  </clipPath>
  <clipPath
     id="c">
    <path
       d="m -948.174,452.103 h 141.731 v 158.165 h -141.731 z"
       id="path3" />
  </clipPath>
  <g
     clip-path="url(#a)"
     transform="matrix(8.8062763,0,0,-8.8062763,-1744.8913,922.43133)"
     id="g10">
    <g
       clip-path="url(#b)"
       transform="matrix(0.4006042,0,0,-0.3950043,566.92914,283.46457)"
       id="g9">
      <g
         clip-path="url(#c)"
         id="g8">
        <path
           d="m -842.005,546.068 c -3.946,4.499 -7.397,4.39 -7.541,4.384 l -0.015,0.006 c -0.012,0 -0.029,-0.006 -0.029,-0.006 l -4.786,-0.108 c 1.081,-0.819 2.212,-1.857 3.357,-3.154 0.031,-0.049 0.075,-0.107 0.12,-0.155 8.556,-12.618 5.716,-21.113 3.262,-25.061 -0.118,-0.188 -0.251,-0.371 -0.386,-0.536 l 1.814,0.601 c 3.764,1.021 6.736,3.675 7.997,7.129 1.225,3.301 1.546,8.936 -3.793,16.9 m -19.284,20.827 c -1.536,0.238 -3.409,0.492 -5.244,0.697 3.75,-4.336 5.305,-10.863 5.734,-14.199 l 9.402,0.238 c -0.494,3.641 -2.433,12.115 -9.892,13.264 m -14.72,1.736 c -3.74,-0.295 -13.608,-1.295 -19.488,-1.916 l -4.396,-0.435 c -2.091,-0.188 -4.119,-2.401 -5.528,-4.44 5.792,0.434 19.36,1.219 22.033,1.188 3.685,-0.116 7.926,-1.957 8.88,-5.334 0.632,-2.186 0.67,-2.473 0.775,-3.737 0.07,-0.681 0.144,-1.736 0.43,-3.899 0.714,-5.27 3.383,-6.3 3.845,-6.438 0.987,-0.059 5.077,-0.535 8.604,-4.195 0.039,-0.059 0.07,-0.115 0.126,-0.164 3.294,-4.336 1.863,-11.111 1.825,-11.405 -0.016,-0.049 -0.569,-3.614 -3.448,-5.588 -1.811,-1.27 -4.041,-1.616 -6.638,-1.083 -0.902,0.189 -1.735,0.509 -2.465,0.876 1.951,-2.496 4.629,-4.046 7.787,-4.512 1.909,-0.263 3.784,-0.099 5.576,0.41 0.132,0.064 0.247,0.13 0.39,0.17 l 1.649,0.568 c 2.309,1.048 4.337,2.785 5.691,4.954 2.05,3.285 4.336,10.414 -3.144,21.509 -4.178,4.783 -7.887,5.003 -8.527,5.021 l -0.147,-0.018 c -0.092,0 -0.149,0.027 -0.237,0.027 -0.013,0 -0.025,0 -0.039,0.016 -0.623,0.098 -1.152,0.564 -1.313,1.17 0,0 0,0.017 -0.012,0.025 0,0.065 -0.016,0.125 -0.016,0.182 -0.015,0.055 -0.015,0.088 -0.015,0.13 -0.098,1.934 -1.47,10.643 -6.149,14.813 -1.021,0.933 -2.118,1.531 -3.343,1.851 -0.259,0.024 -0.387,0.024 -0.42,0.047 -0.188,0.026 -0.332,0.069 -0.479,0.141 -0.597,0.076 -1.181,0.092 -1.807,0.066 m -37.962,-25.333 c -3.448,-0.579 -3.408,-4.855 -3.408,-5.014 0,0.032 1.951,-39.979 1.951,-39.979 0,-0.199 0.136,-3.82 3.575,-4.951 0.169,-0.055 0.33,-0.122 0.473,-0.263 2.93,-2.263 3.511,-4.562 4.179,-9.674 0.252,-3.451 2.573,-5.042 2.665,-5.091 11.38,-6.266 33.289,-18.291 34.071,-18.694 0.82,-0.412 2.079,-0.778 2.928,-0.385 0.511,0.246 0.902,0.821 1.145,1.678 0.21,4.466 1.144,17.133 1.23,18.511 -0.029,0.63 -0.51,6.233 -5.618,7.528 -1.541,0.411 -2.766,0.326 -3.583,-0.263 -1.272,-0.874 -1.453,-2.694 -1.453,-2.703 -0.011,-0.073 -0.011,-0.115 -0.034,-0.17 l -0.662,-3.402 c -0.233,-1.198 -0.901,-2.171 -1.908,-2.78 -2.232,-1.366 -5.478,-0.515 -5.853,-0.424 -0.105,0.034 -0.188,0.072 -0.276,0.122 -0.104,0.042 -9.419,4.763 -13.154,6.581 -4.453,2.153 -4.053,8.554 -4.036,8.822 0,-0.106 -0.245,44.75 -0.245,44.75 0,0.421 0.056,3.975 2.167,6.064 0.957,0.927 2.238,1.417 3.652,1.377 4.319,-0.099 13.566,-0.756 13.949,-0.77 0.115,-0.018 0.199,-0.024 0.297,-0.041 0.278,-0.091 6.929,-1.893 7.411,-7.515 0.273,-3.021 0.658,-6.165 0.67,-6.191 0.017,-0.124 1.065,-5.155 5.483,-6.098 1.72,-0.344 3.107,-0.172 4.134,0.558 1.75,1.211 2.147,3.55 2.147,3.566 0.024,0.163 1.176,5.66 -1.152,8.822 -2.99,3.041 -6.335,3.139 -6.474,3.139 -0.09,0 -0.18,0.023 -0.26,0.04 -0.227,0.047 -5.441,1.039 -6.523,9.185 -0.285,2.244 -0.385,3.344 -0.443,4.065 -0.088,1.048 -0.088,1.113 -0.675,3.121 -0.475,1.718 -3.418,2.939 -5.878,2.98 -2.807,0.065 -19.587,-0.926 -23.608,-1.301 -1.57,-0.158 -2.197,-3.9 -2.197,-5.959 0.192,-0.932 0.75,-4.38 -0.93,-6.872 -0.846,-1.269 -2.151,-2.08 -3.757,-2.369 m 55.22,-86.934 c 1.329,0.622 3.636,2.309 4.344,6.251 0.293,6.187 1.267,18.154 1.281,18.254 0.02,0.451 0.481,11.772 -12.563,16.084 -1.775,0.596 -3.378,0.622 -4.831,0.113 -0.381,-0.188 -0.611,-0.295 -0.611,-0.295 -0.091,-0.048 -0.162,-0.066 -0.264,-0.098 -0.041,-0.016 -0.088,-0.041 -0.132,-0.059 -3.169,-1.776 -4.823,-5.938 -5.472,-7.946 0.231,0.223 0.487,0.434 0.764,0.638 1.651,1.173 3.751,1.436 6.258,0.764 6.127,-1.59 7.927,-7.63 8.028,-10.611 v -0.138 c -0.013,-0.164 -1.043,-14.37 -1.253,-18.74 0,-0.12 -0.011,-0.228 -0.04,-0.317 -0.469,-1.737 -1.254,-2.746 -2.051,-3.369 l 1.414,-0.76 c 1.377,-0.707 3.399,-0.658 5.128,0.229 m 15.927,16.49 c 0.266,5.49 1.096,15.947 1.096,16.044 0.031,0.384 0.419,10.315 -11.047,14.166 -1.702,0.574 -5.694,-0.264 -6.652,-0.786 -0.028,-0.017 -2.431,-1.132 -5.03,-2.369 15.202,-5.178 14.533,-19.128 14.533,-19.253 -0.012,-0.166 -0.932,-11.471 -1.254,-17.706 l 4.779,4.479 c 1.585,1.346 3.11,2.798 3.575,5.425 m -45.624,61.622 -0.149,-39.44 9.036,3.67 1.052,34.728 z m 10.52,-38.566 -8.075,-3.269 6.093,-2.537 c 0.508,1.456 1.401,3.593 2.798,5.553 z m -4.683,45.072 c -1.274,0.088 -9.697,0.645 -13.63,0.753 -0.566,0.023 -0.986,-0.133 -1.338,-0.476 -0.991,-0.949 -1.211,-3.064 -1.211,-3.728 l 0.232,-44.872 c 0,-0.18 -0.198,-4.655 2.261,-5.85 3.477,-1.671 11.774,-5.883 13.011,-6.523 0.79,-0.188 2.417,-0.384 3.189,0.098 0.175,0.106 0.348,0.272 0.437,0.672 l 0.655,3.319 c 0.012,0.296 0.148,1.082 0.527,2.008 -0.336,-0.092 -0.709,-0.092 -1.026,0.067 l -11.333,4.701 c -0.114,0.072 -0.248,0.149 -0.367,0.235 -0.028,0.018 -0.043,0.034 -0.07,0.067 -0.1,0.091 -0.186,0.179 -0.277,0.303 v 0.009 c -0.063,0.082 -0.107,0.179 -0.167,0.27 -0.011,0.056 -0.011,0.091 -0.026,0.098 -0.013,0.034 -0.013,0.068 -0.029,0.106 -0.028,0.125 -0.04,0.263 -0.04,0.402 0,0.018 -0.015,0.018 -0.015,0.018 v 0.017 l 0.185,43.575 c 0,0.46 0.196,0.879 0.543,1.198 0.331,0.288 0.769,0.442 1.237,0.404 l 12.121,-1.272 c -0.434,2.9 -4.146,4.179 -4.869,4.401 m 47.39,-12.947 c -1.631,-4.406 -5.374,-7.8 -10.076,-9.071 0.085,0.026 -6.594,-2.245 -9.764,-3.316 -2.8,-1.222 -5.95,-1.714 -9.057,-1.255 -5.062,0.697 -9.109,3.671 -11.517,8.268 l -0.702,-23.89 1.593,-0.525 c 0.509,0.432 1.054,0.808 1.629,1.153 0.425,0.255 0.876,0.438 1.331,0.624 l 10.917,5.138 c 1.541,0.836 6.445,1.826 9.096,0.909 13.872,-4.606 13.254,-17.262 13.242,-17.386 0,-0.148 -0.859,-10.716 -1.094,-16.147 -0.007,-0.051 -0.007,-0.141 -0.023,-0.191 -0.628,-3.531 -2.584,-5.594 -4.613,-7.308 0.038,0.075 -10.73,-10.068 -10.73,-10.068 -0.089,-0.058 -0.172,-0.097 -0.288,-0.158 -0.617,-0.506 -1.301,-0.973 -2.039,-1.333 -2.669,-1.32 -5.748,-1.376 -8.068,-0.18 0,0 -37.364,20.399 -40.795,22.285 -0.235,0.14 -3.846,2.492 -4.191,7.521 -0.662,4.736 -1.097,5.957 -2.811,7.317 -5.285,1.991 -5.456,7.529 -5.456,7.8 0,-0.066 -1.938,39.942 -1.938,39.942 -0.069,2.513 1.089,7.454 6.068,8.312 0.741,0.125 1.269,0.422 1.632,0.968 0.897,1.335 0.611,3.745 0.423,4.552 -0.013,0.112 -0.032,0.231 -0.032,0.325 -0.015,0.73 0,5.97 2.637,8.306 0.45,0.969 4.191,8.346 9.647,8.854 l 4.387,0.437 c 5.894,0.606 15.772,1.623 19.562,1.903 1.245,0.088 2.43,0 3.55,-0.28 1.994,-0.214 8.003,-0.902 11.886,-1.474 9.973,-1.526 12.185,-12.584 12.668,-16.533 1.873,-0.362 5.208,-1.52 8.602,-5.44 0.072,-0.068 0.099,-0.125 0.129,-0.166 6.193,-9.11 5.706,-15.837 4.195,-19.893"
           fill="#e60013"
           id="path8"
           style="fill:#ffffff" />
      </g>
    </g>
  </g>
</svg>
