<?xml version="1.0" encoding="UTF-8" standalone="no"?>
<svg
   class="_logo"
   viewBox="0 0 104.2 59.7"
   version="1.1"
   id="svg25"
   sodipodi:docname="eighting-alt.svg"
   inkscape:version="1.3.2 (091e20e, 2023-11-25, custom)"
   xmlns:inkscape="http://www.inkscape.org/namespaces/inkscape"
   xmlns:sodipodi="http://sodipodi.sourceforge.net/DTD/sodipodi-0.dtd"
   xmlns="http://www.w3.org/2000/svg"
   xmlns:svg="http://www.w3.org/2000/svg">
  <defs
     id="defs25" />
  <sodipodi:namedview
     id="namedview25"
     pagecolor="#505050"
     bordercolor="#ffffff"
     borderopacity="1"
     inkscape:showpageshadow="0"
     inkscape:pageopacity="0"
     inkscape:pagecheckerboard="1"
     inkscape:deskcolor="#505050"
     inkscape:zoom="9.2833215"
     inkscape:cx="50.19755"
     inkscape:cy="24.721755"
     inkscape:window-width="1920"
     inkscape:window-height="1017"
     inkscape:window-x="-8"
     inkscape:window-y="-8"
     inkscape:window-maximized="1"
     inkscape:current-layer="svg25" />
  <title
     id="title1">logo</title>
  <g
     id="g25">
    <g
       id="g10" />
    <g
       id="g12">
      <path
         d="M18.9,33.3H17.4a6.1,6.1,0,0,1-1-12.2h1a6.2,6.2,0,0,0,5.4-6.2c0-3.2-2.4-5-5.5-5.4V1.9c6.6,0,11.9,4.5,11.9,11.1A12,12,0,0,1,26,21.1h0a13.6,13.6,0,0,1-7.1,25.2Z"
         style="fill:#ffffff"
         id="path11" />
    </g>
    <g
       id="g14">
      <path
         d="M19.7,15.9A4.7,4.7,0,0,0,15,11.3V2.6A10.5,10.5,0,0,0,7.7,20.7h0l.2.2A14.2,14.2,0,0,0,1.7,32.8,14.5,14.5,0,0,0,16.3,47.3H17V36.2h-.4a7.9,7.9,0,0,1-7.9-7.9,8,8,0,0,1,7.2-7.9h-.2A4.5,4.5,0,0,0,19.7,15.9Z"
         style="fill:#ffffff"
         id="path13" />
    </g>
    <rect
       x="35.8"
       y="22.9"
       width="12.9"
       height="21.72"
       id="rect14"
       style="fill:#ffffff" />
    <path
       d="M62.4,32.9c2.1,0,3.8.8,3.8,2.9v8.9h11V33.9a10.9,10.9,0,0,0-10.9-11h-15V44.7H62.4Z"
       id="path15"
       style="fill:#ffffff" />
    <path
       d="M102.6,22.9h-13A10.9,10.9,0,0,0,78.7,33.8h0A10.8,10.8,0,0,0,89.6,44.6h2.5s-.1,2.7-2.2,2.7H79.2v9.9H90.8s11.7.9,11.7-11.5Z"
       id="path16"
       style="fill:#ffffff" />
    <polygon
       points="11.1 53.3 11.1 54.4 9.2 54.4 9.2 54.9 10.9 54.9 10.9 56.2 9.2 56.2 9.2 56.7 11.2 56.7 11.2 57.7 7.7 57.7 7.7 53.3 11.1 53.3"
       id="polygon16"
       style="fill:#ffffff" />
    <polygon
       points="20 53.3 21.3 53.3 21.3 54.8 22.9 54.8 22.9 53.3 24.2 53.3 24.2 57.7 22.9 57.7 22.9 55.9 21.3 55.9 21.3 57.7 20 57.7 20 53.3"
       id="polygon17"
       style="fill:#ffffff" />
    <polygon
       points="28.7 53.3 28.7 54.8 27.6 54.8 27.6 57.7 26.2 57.7 26.2 54.8 25 54.8 25 53.3 28.7 53.3"
       id="polygon18"
       style="fill:#ffffff" />
    <polygon
       points="34.1 53.3 35.5 55.5 35.5 53.3 36.9 53.3 36.9 57.7 35.5 57.7 34.1 55.5 34.1 57.7 32.7 57.7 32.7 53.3 34.1 53.3"
       id="polygon19"
       style="fill:#ffffff" />
    <rect
       x="57.3"
       y="56.8"
       width="1"
       height="0.89"
       id="rect19"
       style="fill:#ffffff" />
    <path
       d="M59.5,56.8h.9v.9c0,.2,0,.7-.4.9l-.5.2v-.4a.4.4,0,0,0,.4-.3.6.6,0,0,0,.1-.4h-.5Z"
       id="path19"
       style="fill:#ffffff" />
    <polygon
       points="63.7 53.3 63.7 56.7 65.5 56.7 65.5 57.7 62.3 57.7 62.3 53.3 63.7 53.3"
       id="polygon20"
       style="fill:#ffffff" />
    <path
       d="M70.3,53.3h2.2a1.8,1.8,0,0,1,1.5,1,5.6,5.6,0,0,1,.2,1,2.7,2.7,0,0,1-.5,1.6,1.6,1.6,0,0,1-1.3.8H70.3V53.3m1.2,3.3H72a.6.6,0,0,0,.7-.5,1.1,1.1,0,0,0,.2-.6,1.2,1.2,0,0,0-.2-.7.6.6,0,0,0-.6-.3h-.6Z"
       id="path20"
       style="fill:#ffffff" />
    <rect
       x="29.8"
       y="53.3"
       width="1.7"
       height="4.45"
       id="rect20"
       style="stroke:none;fill:#ffffff" />
    <path
       d="M49.2,54.7a1.3,1.3,0,1,0-1.1,2,1.3,1.3,0,0,0,1.1-.5v1.4l-1.1.2a2.9,2.9,0,0,1-1.8-.7,2.1,2.1,0,0,1-.8-1.6,2.4,2.4,0,0,1,.7-1.6,2.6,2.6,0,0,1,1.9-.7,2,2,0,0,1,1.1.2Z"
       id="path21"
       style="fill:#ffffff" />
    <path
       d="m 55.3,55.4 c 0,1.576478 -1.280759,2.514872 -2.7,2.4 -1.419241,0.114872 -2.647686,-0.82474 -2.7,-2.247661 C 49.85211,52.390176 55.3,52.447443 55.3,55.4 m -3.9,0.152339 c 0,0.70845 0.556151,1.147661 1.3,1.147661 0.71797,0 1.242873,-0.448733 1.242873,-1.166703 0,-0.668724 -0.579371,-1.290909 -1.242873,-1.233297 -0.663502,-0.05761 -1.3,0.473055 -1.3,1.252339 z"
       id="path22"
       style="fill:#ffffff"
       sodipodi:nodetypes="ccccccccc" />
    <path
       d="M17.5,57.6v.2h1.3V55.1H17.3v1.1h.3a.3.3,0,0,1-.3.3c-.3.1-1.4.1-.8-1.5a1.7,1.7,0,0,1,2.3-.4V53.4s-2.3-.9-3.5.9a2.2,2.2,0,0,0,2.3,3.3"
       id="path23"
       style="fill:#ffffff" />
    <polygon
       points="69.3 53.3 69.3 54.5 68.2 54.5 68.2 57.7 66.8 57.7 66.8 54.5 65.6 54.5 65.6 53.3 69.3 53.3"
       id="polygon23"
       style="fill:#ffffff" />
    <path
       d="M40.5,57.6v.2h1.2V55.1H40.3v1.1h.2s.1.3-.2.3-1.4.1-.8-1.5c0,0,.6-1.1,2.2-.4V53.4s-2.3-.9-3.5.9a2.1,2.1,0,0,0,2.3,3.3"
       id="path24"
       style="fill:#ffffff" />
    <rect
       x="75.4"
       y="56.8"
       width="1"
       height="0.89"
       id="rect24"
       style="fill:#ffffff" />
    <rect
       x="12.5"
       y="53.3"
       width="1.7"
       height="4.45"
       id="rect25"
       style="stroke:none;fill:#ffffff" />
  </g>
</svg>
