<?xml version="1.0" encoding="UTF-8" standalone="no"?>
<svg
   version="1.1"
   id="svg62"
   sodipodi:docname="jaleco.svg"
   style="fill:none"
   inkscape:version="1.3.2 (091e20e, 2023-11-25, custom)"
   xmlns:inkscape="http://www.inkscape.org/namespaces/inkscape"
   xmlns:sodipodi="http://sodipodi.sourceforge.net/DTD/sodipodi-0.dtd"
   xmlns="http://www.w3.org/2000/svg"
   xmlns:svg="http://www.w3.org/2000/svg"
   xmlns:rdf="http://www.w3.org/1999/02/22-rdf-syntax-ns#"
   xmlns:cc="http://creativecommons.org/ns#"
   xmlns:dc="http://purl.org/dc/elements/1.1/">
  <metadata
     id="metadata68">
    <rdf:RDF>
      <cc:Work
         rdf:about="">
        <dc:format>image/svg+xml</dc:format>
        <dc:type
           rdf:resource="http://purl.org/dc/dcmitype/StillImage" />
      </cc:Work>
    </rdf:RDF>
  </metadata>
  <defs
     id="defs66" />
  <sodipodi:namedview
     pagecolor="#ffffff"
     bordercolor="#666666"
     borderopacity="1"
     objecttolerance="10"
     gridtolerance="10"
     guidetolerance="10"
     inkscape:pageopacity="0"
     inkscape:pageshadow="2"
     inkscape:window-width="1920"
     inkscape:window-height="1017"
     id="namedview64"
     showgrid="false"
     inkscape:pagecheckerboard="true"
     inkscape:zoom="1.9360065"
     inkscape:cx="235.79467"
     inkscape:cy="89.61747"
     inkscape:window-x="-8"
     inkscape:window-y="-8"
     inkscape:window-maximized="1"
     inkscape:current-layer="svg62"
     inkscape:showpageshadow="0"
     inkscape:deskcolor="#505050" />
  <path
     style="fill:#ffffff;stroke-width:1.03845072"
     d="m 88.232854,34.21165 c -36.604451,0 -66.107165,27.451086 -65.853903,61.270723 0.253246,33.819647 30.166891,61.263717 66.771239,61.263717 36.60447,0 66.1073,-27.44407 65.85391,-61.263717 C 154.75072,61.662736 124.83732,34.211652 88.232854,34.21165 Z m -30.662496,16.564576 8.007437,8.520376 9.495482,-8.520376 8.807481,8.520376 8.586899,-8.520376 8.916023,8.520376 8.92477,-8.520376 17.73226,18.131401 -8.6902,8.579896 -9.26964,-8.579896 -8.35232,8.579896 -8.923019,-8.579896 -8.579897,8.579896 -9.378189,-8.579896 -8.807481,8.579896 -17.277087,-18.190921 z m -20.141137,32.684488 9.269649,8.637668 8.352314,-8.637668 8.462604,8.637668 9.267899,-8.637668 8.69719,8.637668 8.924774,-8.637668 8.688436,8.637668 9.386943,-8.637668 8.5799,8.637668 8.5799,-8.637668 17.84779,18.246946 -8.46961,8.40833 -8.69719,-8.40833 -9.1506,8.40833 -9.03507,-8.40833 -8.35231,8.40833 -9.378189,-8.40833 -8.579898,8.40833 -9.042066,-8.40833 -8.923023,8.40833 -8.462604,-8.40833 -8.69719,8.40833 -17.385626,-18.017608 z m 20.141137,32.301096 8.007437,8.52037 9.495482,-8.52037 8.807481,8.52037 8.586899,-8.52037 8.916023,8.52037 8.92477,-8.52037 17.73226,18.12965 -8.6902,8.5799 -9.26964,-8.5799 -8.35232,8.5799 -8.923019,-8.5799 -8.579897,8.5799 -9.378189,-8.5799 -8.807481,8.5799 -17.277087,-18.18918 z"
     id="path42"
     inkscape:connector-curvature="0" />
  <path
     d="m 194.76965,59.896588 h 16.44045 v 51.375442 c 0,35.12151 -45.23978,27.1379 -44.52547,-0.685 h 15.75405 c -0.12053,9.48339 12.33097,13.57447 12.33097,0.685 z"
     id="path50"
     inkscape:connector-curvature="0"
     style="clip-rule:evenodd;fill:#ffffff;fill-rule:evenodd;stroke-width:1.26874876" />
  <path
     d="m 214.63445,133.1922 h 17.12557 l 4.10948,-22.60517 h 16.44045 l 3.42435,22.60517 h 17.12557 l -12.3297,-73.295612 h -33.56602 z m 23.29042,-39.045359 h 11.64458 l -5.86162,-30.275897 z"
     id="path52"
     inkscape:connector-curvature="0"
     style="clip-rule:evenodd;fill:#ffffff;fill-rule:evenodd;stroke-width:1.26874876" />
  <path
     d="M 316.01509,133.1922 H 278.3396 V 59.896588 h 17.12557 v 57.540422 h 20.54992 z"
     id="path54"
     inkscape:connector-curvature="0"
     style="clip-rule:evenodd;fill:#ffffff;fill-rule:evenodd;stroke-width:1.26874876" />
  <path
     d="M 359.85544,133.1922 H 318.75559 V 59.896588 h 41.09985 V 74.96666 h -23.97555 v 11.645211 h 23.97555 v 15.755069 h -23.97555 v 15.75507 h 23.97555 z"
     id="path56"
     inkscape:connector-curvature="0"
     style="clip-rule:evenodd;fill:#ffffff;fill-rule:evenodd;stroke-width:1.26874876" />
  <path
     d="m 400.95656,87.296615 h 16.43918 c 0.12814,-7.862056 -4.09553,-29.417845 -26.43312,-28.79527 -13.33201,0.371617 -25.36102,10.53937 -25.62745,37.015364 -0.38951,38.890701 19.6821,39.318781 24.01614,39.229581 28.45169,-0.58578 28.40729,-27.31704 28.05584,-32.35043 l -16.45059,-0.0292 c -0.69781,8.56939 -1.95514,16.59346 -10.39613,16.00311 -8.19104,-0.87112 -7.37016,-13.35929 -7.41457,-22.85308 -0.0431,-9.232302 -0.0152,-20.691642 8.48793,-21.041436 6.79034,0.260855 8.19612,6.852386 9.32277,12.821341 z"
     id="path58"
     inkscape:connector-curvature="0"
     style="clip-rule:evenodd;fill:#ffffff;fill-rule:evenodd;stroke-width:1.26874876" />
  <path
     d="m 446.40187,58.233005 c -17.89443,-0.238779 -26.51685,15.890952 -25.90785,37.98824 0.94522,34.310265 15.44575,38.389035 26.44453,38.256705 19.06549,-0.22647 26.22885,-17.07469 26.31005,-36.243201 0.0837,-20.180589 -5.68781,-39.719321 -26.84673,-40.001744 z m 0.40219,16.242395 c -8.58308,0.254892 -9.43187,11.396663 -9.39635,20.537869 0.014,3.45493 -0.5481,23.792721 9.53084,23.625121 9.49786,-0.16012 9.24157,-14.676 9.39636,-22.95408 0.15986,-8.549842 -0.5684,-21.475093 -9.53085,-21.20891 z"
     id="path60"
     inkscape:connector-curvature="0"
     style="clip-rule:evenodd;fill:#ffffff;fill-rule:evenodd;stroke-width:1.26874876" />
</svg>
