<?xml version="1.0" encoding="UTF-8" standalone="no"?>
<svg
   version="1.1"
   id="svg95"
   sodipodi:docname="kaneko.svg"
   inkscape:version="1.3.2 (091e20e, 2023-11-25, custom)"
   xmlns:inkscape="http://www.inkscape.org/namespaces/inkscape"
   xmlns:sodipodi="http://sodipodi.sourceforge.net/DTD/sodipodi-0.dtd"
   xmlns="http://www.w3.org/2000/svg"
   xmlns:svg="http://www.w3.org/2000/svg"
   xmlns:rdf="http://www.w3.org/1999/02/22-rdf-syntax-ns#"
   xmlns:cc="http://creativecommons.org/ns#"
   xmlns:dc="http://purl.org/dc/elements/1.1/">
  <metadata
     id="metadata101">
    <rdf:RDF>
      <cc:Work
         rdf:about="">
        <dc:format>image/svg+xml</dc:format>
        <dc:type
           rdf:resource="http://purl.org/dc/dcmitype/StillImage" />
        <dc:title>mainlogo</dc:title>
      </cc:Work>
    </rdf:RDF>
  </metadata>
  <defs
     id="defs99">
    <clipPath
       clipPathUnits="userSpaceOnUse"
       id="clipPath909">
      <g
         style="fill:#aa8800;stroke:none"
         id="use911"
         inkscape:label="Clip">
        <g
           id="g1939"
           transform="matrix(2.0794317,0,0,2.0794317,186.00321,-131.99158)"
           style="fill:#aa8800;stroke:none">
          <path
             d="m -146.65192,109.06017 v 4.30384 h -1.16463 v -4.30384 h -1.77166 v -0.88128 h 4.77092 v 0.88128 z"
             style="font-style:normal;font-variant:normal;font-weight:normal;font-stretch:normal;font-size:medium;line-height:1.25;font-family:Eurostile;-inkscape-font-specification:Eurostile;letter-spacing:0px;word-spacing:0px;fill:#aa8800;fill-opacity:1;stroke:none;stroke-width:0.35733205;stroke-miterlimit:4;stroke-dasharray:none;stroke-opacity:1"
             id="path1925"
             inkscape:connector-curvature="0" />
          <path
             d="m -141.67415,108.13331 q 1.67275,0 2.15389,0.47103 0.48114,0.46723 0.48114,2.09684 0,1.78155 -0.48564,2.24498 -0.48114,0.46344 -2.33824,0.46344 -1.67275,0 -2.16288,-0.45584 -0.49014,-0.45963 -0.49014,-2.01707 0,-1.85373 0.48114,-2.32856 0.48114,-0.47482 2.36073,-0.47482 z m -0.0899,0.84329 q -1.17362,0 -1.37147,0.25451 -0.19785,0.25451 -0.19785,1.76256 0,1.1168 0.22933,1.34471 0.23382,0.22792 1.36697,0.22792 1.08369,0 1.29953,-0.25451 0.21584,-0.2583 0.21584,-1.55743 0,-1.30293 -0.20685,-1.53845 -0.20235,-0.23931 -1.3355,-0.23931 z"
             style="font-style:normal;font-variant:normal;font-weight:normal;font-stretch:normal;font-size:medium;line-height:1.25;font-family:Eurostile;-inkscape-font-specification:Eurostile;letter-spacing:0px;word-spacing:0px;fill:#aa8800;fill-opacity:1;stroke:none;stroke-width:0.35733205;stroke-miterlimit:4;stroke-dasharray:none;stroke-opacity:1"
             id="path1927"
             inkscape:connector-curvature="0" />
          <path
             d="m -134.53799,112.36877 h -2.64852 l -0.38221,0.99524 h -1.23208 l 2.04147,-5.18512 h 1.74919 l 2.07294,5.18512 h -1.20959 z m -0.2698,-0.72554 -1.06121,-2.70082 -1.04322,2.70082 z"
             style="font-style:normal;font-variant:normal;font-weight:normal;font-stretch:normal;font-size:medium;line-height:1.25;font-family:Eurostile;-inkscape-font-specification:Eurostile;letter-spacing:0px;word-spacing:0px;fill:#aa8800;fill-opacity:1;stroke:none;stroke-width:0.35733205;stroke-miterlimit:4;stroke-dasharray:none;stroke-opacity:1"
             id="path1929"
             inkscape:connector-curvature="0" />
          <path
             d="m -132.40659,113.36401 v -5.18512 h 2.47314 0.30577 q 1.24557,0 1.67725,0.36847 0.43617,0.36466 0.43617,1.41309 0,1.04082 -0.41369,1.38269 -0.41369,0.34188 -1.67274,0.34188 l -0.2698,0.004 h -1.37148 v 1.67519 z m 1.16462,-2.50329 h 1.32651 q 0.79141,0 1.00275,-0.15195 0.21584,-0.15574 0.21584,-0.72933 0,-0.65716 -0.17987,-0.81291 -0.17537,-0.15954 -0.92181,-0.15954 h -1.44342 z"
             style="font-style:normal;font-variant:normal;font-weight:normal;font-stretch:normal;font-size:medium;line-height:1.25;font-family:Eurostile;-inkscape-font-specification:Eurostile;letter-spacing:0px;word-spacing:0px;fill:#aa8800;fill-opacity:1;stroke:none;stroke-width:0.35733205;stroke-miterlimit:4;stroke-dasharray:none;stroke-opacity:1"
             id="path1931"
             inkscape:connector-curvature="0" />
          <path
             d="m -125.61218,108.17889 v 4.30384 h 2.87784 v 0.88128 h -4.04247 v -5.18512 z"
             style="font-style:normal;font-variant:normal;font-weight:normal;font-stretch:normal;font-size:medium;line-height:1.25;font-family:Eurostile;-inkscape-font-specification:Eurostile;letter-spacing:0px;word-spacing:0px;fill:#aa8800;fill-opacity:1;stroke:none;stroke-width:0.35733205;stroke-miterlimit:4;stroke-dasharray:none;stroke-opacity:1"
             id="path1933"
             inkscape:connector-curvature="0" />
          <path
             d="m -117.78215,112.36877 h -2.64851 l -0.38222,0.99524 h -1.23208 l 2.04147,-5.18512 h 1.74919 l 2.07295,5.18512 h -1.20959 z m -0.2698,-0.72554 -1.0612,-2.70082 -1.04322,2.70082 z"
             style="font-style:normal;font-variant:normal;font-weight:normal;font-stretch:normal;font-size:medium;line-height:1.25;font-family:Eurostile;-inkscape-font-specification:Eurostile;letter-spacing:0px;word-spacing:0px;fill:#aa8800;fill-opacity:1;stroke:none;stroke-width:0.35733205;stroke-miterlimit:4;stroke-dasharray:none;stroke-opacity:1"
             id="path1935"
             inkscape:connector-curvature="0" />
          <path
             d="m -109.66276,108.17889 v 5.18512 h -1.97402 l -1.75368,-2.84517 q -0.1304,-0.21272 -0.4092,-0.74453 l -0.19785,-0.37226 -0.19335,-0.37227 h -0.045 l 0.018,0.34188 0.0135,0.33808 0.009,0.67995 v 2.97432 h -1.16463 v -5.18512 h 1.97403 l 1.5963,2.62865 q 0.21134,0.34947 0.49013,0.84709 l 0.23383,0.42165 0.23382,0.42544 h 0.0405 l -0.0135,-0.33428 -0.0135,-0.33427 -0.009,-0.66856 v -2.98572 z"
             style="font-style:normal;font-variant:normal;font-weight:normal;font-stretch:normal;font-size:medium;line-height:1.25;font-family:Eurostile;-inkscape-font-specification:Eurostile;letter-spacing:0px;word-spacing:0px;fill:#aa8800;fill-opacity:1;stroke:none;stroke-width:0.35733205;stroke-miterlimit:4;stroke-dasharray:none;stroke-opacity:1"
             id="path1937"
             inkscape:connector-curvature="0" />
        </g>
      </g>
    </clipPath>
    <linearGradient
       id="SVGID_2_"
       gradientUnits="userSpaceOnUse"
       x1="730.24628"
       y1="285.81149"
       x2="730.24628"
       y2="33.963799"
       gradientTransform="matrix(0.43499454,0,0,-0.43499454,9.1046148,160.45593)">
      <stop
         offset="0"
         style="stop-color:#ECEFEB"
         id="stop155" />
      <stop
         offset="0.1746"
         style="stop-color:#EAECE9"
         id="stop157" />
      <stop
         offset="0.2796"
         style="stop-color:#E1E4E0"
         id="stop159" />
      <stop
         offset="0.3661"
         style="stop-color:#D3D6D3"
         id="stop161" />
      <stop
         offset="0.4427"
         style="stop-color:#C0C1BF"
         id="stop163" />
      <stop
         offset="0.5127"
         style="stop-color:#A6A7A6"
         id="stop165" />
      <stop
         offset="0.5769"
         style="stop-color:#878787"
         id="stop167" />
      <stop
         offset="0.6"
         style="stop-color:#7A7A7A"
         id="stop169" />
      <stop
         offset="1"
         style="stop-color:#343732"
         id="stop171" />
    </linearGradient>
    <linearGradient
       id="SVGID_1_"
       gradientUnits="userSpaceOnUse"
       x1="954.83661"
       y1="279.914"
       x2="954.83661"
       y2="15.5362"
       gradientTransform="matrix(0.43499454,0,0,-0.43499454,9.1046148,160.45593)">
      <stop
         offset="0"
         style="stop-color:#ECEFEB"
         id="stop132" />
      <stop
         offset="0.1746"
         style="stop-color:#EAECE9"
         id="stop134" />
      <stop
         offset="0.2796"
         style="stop-color:#E1E4E0"
         id="stop136" />
      <stop
         offset="0.3661"
         style="stop-color:#D3D6D3"
         id="stop138" />
      <stop
         offset="0.4427"
         style="stop-color:#C0C1BF"
         id="stop140" />
      <stop
         offset="0.5127"
         style="stop-color:#A6A7A6"
         id="stop142" />
      <stop
         offset="0.5769"
         style="stop-color:#878787"
         id="stop144" />
      <stop
         offset="0.6"
         style="stop-color:#7A7A7A"
         id="stop146" />
      <stop
         offset="1"
         style="stop-color:#343732"
         id="stop148" />
    </linearGradient>
    <radialGradient
       id="SVGID_1_-3"
       cx="-19.067499"
       cy="480.04959"
       r="1"
       gradientTransform="matrix(-7.2191342,25.86842,25.86842,7.2191342,-12511.769,-2887.2055)"
       gradientUnits="userSpaceOnUse">
      <stop
         offset="1.562500e-02"
         style="stop-color:#FEFEFE"
         id="stop108" />
      <stop
         offset="1"
         style="stop-color:#0549A0"
         id="stop110" />
    </radialGradient>
  </defs>
  <sodipodi:namedview
     pagecolor="#ffffff"
     bordercolor="#666666"
     borderopacity="1"
     objecttolerance="10"
     gridtolerance="10"
     guidetolerance="10"
     inkscape:pageopacity="0"
     inkscape:pageshadow="2"
     inkscape:window-width="1920"
     inkscape:window-height="1017"
     id="namedview97"
     showgrid="false"
     inkscape:pagecheckerboard="true"
     inkscape:zoom="1.3948125"
     inkscape:cx="209.70561"
     inkscape:cy="77.788233"
     inkscape:window-x="-8"
     inkscape:window-y="-8"
     inkscape:window-maximized="1"
     inkscape:current-layer="svg95"
     inkscape:showpageshadow="0"
     inkscape:deskcolor="#505050" />
  <title
     id="title70">mainlogo</title>
  <g
     id="g6"
     style="line-height:125%;fill:#ffffff;stroke:#ffffff;stroke-width:5.77144432;stroke-miterlimit:4;stroke-dasharray:none;stroke-opacity:1"
     transform="matrix(0.81251972,0,0,0.81251972,-56.585293,-677.77081)">
    <path
       inkscape:connector-curvature="0"
       id="path4"
       word-spacing="0"
       letter-spacing="0"
       font-size="159.402"
       font-weight="400"
       d="m 108.246,940.261 35.219,-43.041 h 33.974 l -42.73,52.926 50.046,53.238 h -41.29 l -35.22,-37.632 z M 226.902,897.22 h 34.09 l 35.57,106.164 H 192.616 l 20.548,-66.314 h 26.775 l -10.663,41.757 h 28.058 z m 140.138,0 q 16.267,0 23.116,6.226 6.694,6.227 6.694,20.237 v 79.7 h -34.286 v -68.22 q 0,-6.382 -0.467,-8.445 -0.467,-1.906 -2.413,-2.568 -1.906,-0.467 -7.627,-0.467 H 335.79 v 79.7 H 304.073 V 897.22 Z m 113.908,39.85 v 26.463 h -43.042 v 13.388 h 43.042 v 26.463 H 406.19 V 937.07 Z M 406.19,897.22 h 74.758 v 26.463 H 406.19 Z m 82.814,43.041 35.219,-43.041 h 33.974 l -42.73,52.926 50.046,53.238 h -41.29 l -35.22,-37.632 z m 139.204,-13.698 q -9.574,0 -16.267,6.849 -6.85,7.005 -6.85,16.734 0,9.885 6.85,16.89 6.849,7.005 16.267,7.005 6.226,0 11.48,-3.347 5.254,-3.191 8.29,-8.6 2.879,-5.41 2.879,-11.948 0,-9.729 -6.538,-16.734 -6.538,-6.85 -16.111,-6.85 z m 0,-32.223 q 11.169,0 21.209,4.475 9.885,4.476 17.357,11.948 7.355,7.666 11.636,17.862 4.32,10.352 4.32,21.521 0,15.139 -7.356,28.059 -7.472,12.92 -20.08,20.392 -12.57,7.666 -27.086,7.666 -14.516,0 -27.242,-7.666 -12.764,-7.472 -20.12,-20.392 -7.472,-12.92 -7.472,-28.059 0,-11.169 4.32,-21.52 4.28,-10.197 11.792,-17.863 7.316,-7.472 17.512,-11.948 10.04,-4.475 21.21,-4.475 z"
       style="font-weight:400;font-size:159.4019928px;font-family:Stop;-inkscape-font-specification:Stop;letter-spacing:0;word-spacing:0;fill:#ffffff;stroke:#ffffff;stroke-width:5.77144432;stroke-miterlimit:4;stroke-dasharray:none;stroke-opacity:1" />
  </g>
  <path
     style="fill:#ffffff;stroke:#ffffff;stroke-width:4.68941212;stroke-miterlimit:4;stroke-dasharray:none"
     inkscape:connector-curvature="0"
     id="path8"
     d="M 3.7020567,52.387842 H 26.598057 V 136.40641 H 3.7020567 Z" />
</svg>
