<?xml version="1.0" encoding="UTF-8" standalone="no"?>
<!-- Generator: Gravit.io -->

<svg
   style="isolation:isolate"
   viewBox="0 0 264 52.5"
   width="264pt"
   height="52.5pt"
   version="1.1"
   id="svg1"
   sodipodi:docname="konami.svg"
   inkscape:version="1.3.2 (091e20e, 2023-11-25, custom)"
   xmlns:inkscape="http://www.inkscape.org/namespaces/inkscape"
   xmlns:sodipodi="http://sodipodi.sourceforge.net/DTD/sodipodi-0.dtd"
   xmlns="http://www.w3.org/2000/svg"
   xmlns:svg="http://www.w3.org/2000/svg">
  <sodipodi:namedview
     id="namedview1"
     pagecolor="#505050"
     bordercolor="#ffffff"
     borderopacity="1"
     inkscape:showpageshadow="0"
     inkscape:pageopacity="0"
     inkscape:pagecheckerboard="1"
     inkscape:deskcolor="#505050"
     inkscape:document-units="pt"
     inkscape:zoom="3.6903409"
     inkscape:cx="176"
     inkscape:cy="46.201694"
     inkscape:window-width="1920"
     inkscape:window-height="1017"
     inkscape:window-x="-8"
     inkscape:window-y="-8"
     inkscape:window-maximized="1"
     inkscape:current-layer="g1" />
  <defs
     id="defs1">
    <clipPath
       id="_clipPath_tsKlPQYdmNwolpcD2LTjTkPsiKHnLXvZ">
      <rect
         width="264"
         height="69.5"
         id="rect1"
         x="0"
         y="0" />
    </clipPath>
  </defs>
  <g
     clip-path="url(#_clipPath_tsKlPQYdmNwolpcD2LTjTkPsiKHnLXvZ)"
     id="g1">
    <path
       d="m 0,34.704 c 6.479,0.733 12.956,1.467 16.282,0.466 3.325,-1 3.5,-3.735 3.674,-6.47 0.635,-1.982 1.571,-3.967 2.997,-5.955 0.48,-0.685 1.034,-1.316 1.652,-1.878 0.618,-0.564 1.299,-1.058 2.026,-1.471 0.727,-0.413 1.503,-0.747 2.303,-0.991 v 0 l 3.067,-0.589 3.093,-0.431 v 0 c 1.312,-0.183 2.647,-0.588 3.938,-1.261 0.616,-0.321 1.203,-0.69 1.871,-1.225 0.669,-0.536 1.418,-1.234 2.083,-2.002 0.666,-0.771 1.249,-1.612 1.741,-2.502 C 45.218,9.503 45.617,8.562 45.915,7.59 46.694,5.433 47.422,3.269 48.102,1.097 42.47,-0.315 35.841,-0.324 32.361,0.842 28.882,2.009 28.549,4.351 28.23,5.947 27.909,7.541 27.603,8.389 27.253,9.22 c -0.349,0.831 -0.739,1.646 -1.15,2.369 -0.409,0.723 -0.838,1.356 -1.332,1.936 -0.492,0.578 -1.051,1.105 -1.655,1.567 -0.635,0.43 -1.271,0.86 -1.927,1.179 -1.305,0.642 -2.692,0.889 -4.051,1.277 -1.922,0.358 -3.884,0.596 -5.811,1.159 -0.954,0.276 -1.876,0.667 -2.738,1.161 -0.86,0.492 -1.66,1.091 -2.378,1.775 C 5.494,22.327 4.862,23.098 4.33,23.932 4.018,24.415 3.707,24.898 3.318,25.664 2.929,26.429 2.463,27.477 2,28.525 1.226,30.569 0.561,32.629 0,34.704 Z m 12.12,16.742 c 6.477,0.733 12.956,1.466 16.282,0.466 3.326,-1.001 3.5,-3.734 3.674,-6.471 0.635,-1.981 1.572,-3.968 2.999,-5.956 0.478,-0.683 1.032,-1.314 1.651,-1.877 0.617,-0.562 1.299,-1.056 2.027,-1.47 0.728,-0.415 1.502,-0.747 2.303,-0.991 v 0 l 3.066,-0.589 3.093,-0.433 v 0 c 1.311,-0.18 2.648,-0.586 3.939,-1.258 0.614,-0.321 1.201,-0.69 1.869,-1.226 0.668,-0.535 1.418,-1.235 2.084,-2.004 0.666,-0.77 1.249,-1.612 1.74,-2.502 0.491,-0.891 0.89,-1.832 1.189,-2.803 0.778,-2.157 1.507,-4.322 2.186,-6.493 -5.632,-1.413 -12.26,-1.422 -15.741,-0.254 -3.48,1.166 -3.813,3.509 -4.133,5.103 -0.319,1.595 -0.627,2.442 -0.975,3.273 -0.349,0.831 -0.739,1.646 -1.15,2.369 -0.409,0.723 -0.839,1.354 -1.332,1.935 -0.492,0.578 -1.05,1.105 -1.655,1.568 -0.635,0.431 -1.271,0.86 -1.927,1.178 -1.304,0.644 -2.692,0.889 -4.051,1.278 -1.923,0.359 -3.884,0.596 -5.812,1.159 -0.955,0.277 -1.876,0.666 -2.737,1.16 -0.86,0.493 -1.661,1.091 -2.378,1.777 -1.617,1.52 -2.68,3.501 -3.542,5.298 -1.14,2.567 -1.956,5.153 -2.669,7.763 z m 54.5,-8.086 8.906,0.004 6.903,-17.757 4.572,17.753 H 97.446 L 92.973,25.559 108.962,10.319 H 98.277 L 83.109,24.056 88,10.321 78.962,10.319 Z m 58.5,-22.534 c -0.483,1.798 -0.966,3.597 -1.552,5.363 -0.585,1.766 -1.271,3.498 -1.958,5.23 -0.501,1.188 -1.19,2.398 -2.079,3.512 -0.59,0.74 -1.201,1.253 -1.874,1.635 -0.772,0.438 -1.579,0.677 -2.367,0.776 -1.2,0.149 -2.429,-0.029 -3.395,-0.47 -0.528,-0.244 -1.068,-0.613 -1.503,-1.084 -0.662,-0.731 -0.873,-1.494 -0.915,-2.224 -0.04,-0.829 0.058,-1.655 0.267,-2.457 0.986,-3.89 2.447,-7.759 4.486,-11.571 0.277,-0.552 0.635,-1.066 1.058,-1.519 0.422,-0.453 0.912,-0.846 1.445,-1.159 1.097,-0.627 2.202,-0.906 3.135,-0.973 1.399,-0.071 2.885,0.05 4.08,1.059 0.36,0.311 0.66,0.691 0.88,1.114 0.221,0.421 0.361,0.884 0.41,1.357 0.05,0.472 0.009,0.952 -0.118,1.411 z m 13.592,22.538 8.799,-24.682 0.802,24.682 h 12.835 l 12.333,-33.045 h -8.398 l -8.709,24.029 -0.687,-24.029 h -13.308 l -12.098,33.045 z m 49.459,-25.241 -0.446,12.021 -6.828,0.017 z m 36.285,-7.798 h -14.77 l -12.343,33.037 h 8.415 l 9.138,-24.506 -1.901,24.512 h 8.902 l 15.682,-24.166 -9.141,24.163 h 8.675 l 12.403,-33.037 h -14.939 l -13.021,21.323 z m 30.864,0 -12.38,33.041 h 8.56 L 264,10.325 Z m -121.481,5.592 c -0.312,-0.882 -0.774,-1.714 -1.351,-2.457 -0.578,-0.742 -1.272,-1.395 -2.052,-1.923 -0.779,-0.528 -1.644,-0.929 -2.632,-1.247 -2.013,-0.638 -4.387,-0.931 -6.619,-0.885 -1.134,0.024 -2.264,0.134 -3.601,0.39 -1.337,0.254 -2.88,0.657 -4.328,1.283 -1.447,0.625 -2.802,1.475 -3.993,2.506 -1.191,1.029 -2.22,2.239 -2.978,3.292 -0.758,1.052 -1.246,1.946 -1.713,2.849 -0.466,0.903 -0.914,1.812 -1.323,2.74 -0.788,1.834 -1.518,3.611 -2.088,5.332 -0.271,0.854 -0.482,1.726 -0.635,2.609 -0.153,0.882 -0.247,1.775 -0.292,2.445 -0.046,0.669 -0.045,1.115 -0.02,1.562 0.023,0.444 0.066,0.889 0.125,1.332 0.056,0.446 0.128,0.889 0.377,1.602 0.25,0.714 0.676,1.694 1.275,2.565 0.599,0.87 1.37,1.626 2.249,2.223 0.881,0.596 1.868,1.032 2.993,1.349 2.278,0.632 4.956,0.819 7.466,0.67 1.271,-0.078 2.536,-0.248 3.92,-0.6 1.385,-0.354 2.887,-0.894 4.27,-1.653 1.385,-0.759 2.65,-1.738 3.728,-2.884 1.079,-1.145 1.972,-2.458 2.755,-3.898 0.783,-1.44 1.456,-3.006 2.097,-4.582 0.639,-1.577 1.248,-3.164 1.67,-4.343 0.423,-1.178 0.66,-1.948 0.84,-2.732 0.181,-0.784 0.305,-1.58 0.377,-2.383 0.148,-1.582 0.099,-3.379 -0.517,-5.162 z m 53.489,20.881 -0.186,6.57 h 8.644 l 0.589,-33.052 H 184.75 l -21.704,33.049 h 8.974 l 4.483,-6.547 z"
       fill-rule="evenodd"
       fill="#ffffff"
       id="path1"
       sodipodi:nodetypes="sccccsscccsccccccccccccccccccccscccccsscccccscccsccccccccccccccccccscccccscccccccccccccccccsccccccccccccccccsccccccscccccccccccccccccccccccccccccccccccccccccscccccccccccccccccccccccsccccsccccccscccccccccccc" />
  </g>
</svg>
