<?xml version="1.0" encoding="UTF-8" standalone="no"?>
<!-- Generator: Gravit.io -->

<svg
   style="isolation:isolate"
   viewBox="0 0 264 65.226"
   width="264pt"
   height="65.225998pt"
   version="1.1"
   id="svg12"
   sodipodi:docname="nintendo.svg"
   inkscape:version="1.3.2 (091e20e, 2023-11-25, custom)"
   xmlns:inkscape="http://www.inkscape.org/namespaces/inkscape"
   xmlns:sodipodi="http://sodipodi.sourceforge.net/DTD/sodipodi-0.dtd"
   xmlns="http://www.w3.org/2000/svg"
   xmlns:svg="http://www.w3.org/2000/svg">
  <sodipodi:namedview
     id="namedview12"
     pagecolor="#505050"
     bordercolor="#ffffff"
     borderopacity="1"
     inkscape:showpageshadow="0"
     inkscape:pageopacity="0"
     inkscape:pagecheckerboard="1"
     inkscape:deskcolor="#505050"
     inkscape:document-units="pt"
     inkscape:zoom="3.6903409"
     inkscape:cx="176"
     inkscape:cy="52.705158"
     inkscape:window-width="1920"
     inkscape:window-height="1017"
     inkscape:window-x="-8"
     inkscape:window-y="-8"
     inkscape:window-maximized="1"
     inkscape:current-layer="svg12" />
  <defs
     id="defs1">
    <clipPath
       id="_clipPath_Gdlw9WDiAFZ2kSVET8piKoTc2Ar7aa3M">
      <rect
         width="264"
         height="79.225998"
         id="rect1"
         x="0"
         y="0" />
    </clipPath>
  </defs>
  <g
     clip-path="url(#_clipPath_Gdlw9WDiAFZ2kSVET8piKoTc2Ar7aa3M)"
     id="g12">
    <g
       id="g11">
      <path
         d="m 26.189,17.157 h 9.539 L 48.925,38.508 48.918,17.157 h 9.466 V 47.775 H 48.931 L 35.665,26.424 v 21.351 h -9.48 z"
         fill="#ffffff"
         id="path1" />
      <path
         d="m 109.843,20.306 h 9.213 v 4.119 h 4.986 v 3.03 h -4.986 l 0.007,20.32 h -9.22 l 0.003,-20.32 h -5.006 v -3.022 l 5.01,-0.004 z"
         fill="#ffffff"
         id="path2" />
      <path
         d="m 63.653,27.413 9.206,0.004 v 20.358 h -9.206 z"
         fill="#ffffff"
         id="path3" />
      <path
         d="m 63.632,17.151 h 9.227 v 6.258 h -9.227 z"
         fill="#ffffff"
         id="path4" />
      <path
         d="m 228.695,37.433 c 0,0 -0.002,3.078 -0.002,4.312 0,3.246 -1.918,4.586 -3.762,4.586 -1.848,0 -3.773,-1.34 -3.773,-4.586 0,-1.234 0.004,-4.39 0.004,-4.39 0,0 0.007,-3.011 0.007,-4.245 0,-3.233 1.928,-4.561 3.762,-4.561 1.837,0 3.762,1.328 3.762,4.561 0,1.234 -0.004,3.516 0.006,4.333 z m -3.698,-11.409 c -7.432,0 -13.455,5.119 -13.455,11.432 0,6.315 6.026,11.434 13.455,11.434 7.433,0 13.456,-5.119 13.456,-11.434 0,-6.313 -6.023,-11.432 -13.456,-11.432 z"
         fill="#ffffff"
         id="path5" />
      <path
         d="m 199.457,17.157 h 9.087 v 30.618 h -9.101 c 0,0 -0.004,-0.989 -0.004,-1.178 -3.523,2.213 -7.499,2.209 -10.594,0.765 -0.832,-0.387 -6.297,-3.009 -6.297,-10.094 0,-5.375 5.069,-11.244 11.706,-10.662 2.185,0.193 3.737,0.989 5.21,1.816 -0.007,-4.712 -0.007,-11.265 -0.007,-11.265 z m 0.066,20.335 c 0,0 0,-2.551 0,-3.639 0,-3.148 -2.174,-3.951 -3.603,-3.951 -1.467,0 -3.612,0.803 -3.612,3.951 0,1.045 0.004,3.629 0.004,3.629 0,0 -0.004,2.538 -0.004,3.622 0,3.144 2.145,3.968 3.608,3.968 1.433,0 3.611,-0.824 3.611,-3.968 0,-1.309 -0.004,-3.612 -0.004,-3.612 z"
         fill="#ffffff"
         id="path6" />
      <path
         d="m 94.413,26.473 c 3.443,-0.098 10.427,2.157 10.378,10.217 -0.007,1.429 -0.004,11.078 -0.004,11.078 h -9.146 c 0,0 0,-12.099 0,-13.371 0,-1.774 -1.698,-3.748 -4.207,-3.748 -2.507,0 -4.372,1.974 -4.372,3.748 0,0.87 0.011,13.371 0.011,13.371 h -9.14 l -0.004,-20.359 9.146,-0.007 c 0,0 -0.01,1.637 0,2.142 1.761,-1.679 4.295,-2.983 7.338,-3.071 z"
         fill="#ffffff"
         id="path7" />
      <path
         d="m 169.236,26.473 c 3.443,-0.098 10.427,2.157 10.378,10.217 -0.008,1.429 -0.004,11.078 -0.004,11.078 h -9.146 c 0,0 0,-12.099 0,-13.371 0,-1.774 -1.698,-3.748 -4.209,-3.748 -2.506,0 -4.371,1.974 -4.371,3.748 0,0.87 0.01,13.371 0.01,13.371 h -9.14 l 0.008,-20.359 9.136,-0.007 c 0,0 -0.01,1.637 0,2.142 1.76,-1.679 4.298,-2.983 7.338,-3.071 z"
         fill="#ffffff"
         id="path8" />
      <path
         d="m 132.617,34.512 c -0.014,-1.784 0.025,-2.976 0.611,-3.993 0.718,-1.256 2.039,-1.851 3.239,-1.858 h -0.004 c 1.199,0.007 2.521,0.602 3.239,1.858 0.586,1.02 0.61,2.212 0.597,3.996 z m 7.65,6.139 c 0,0 0.007,0.091 0.007,1.234 0,3.724 -2.45,4.55 -3.811,4.55 -1.36,0 -3.853,-0.826 -3.853,-4.55 0,-1.115 0.007,-4.204 0.007,-4.204 0,0 17.344,0.008 17.344,-0.003 0,-6.315 -6.097,-11.545 -13.585,-11.545 -7.49,0 -13.558,5.118 -13.558,11.433 0,6.314 6.068,11.429 13.558,11.429 6.212,0 11.46,-3.545 13.063,-8.351 z"
         fill="#ffffff"
         id="path9" />
      <path
         d="M 34.53,65.038 C 13.831,65.031 0,50.362 0,32.576 v 0 C 0,14.792 13.863,-0.045 34.498,0 H 229.502 C 250.137,-0.045 264,14.792 264,32.576 v 0 c 0,17.786 -13.831,32.455 -34.53,32.462 H 34.53 Z M 34.592,8.001 C 18.205,8.032 8.147,18.984 8.147,32.535 v 0 c 0,13.546 9.996,24.589 26.445,24.53 h 194.816 c 16.449,0.057 26.448,-10.984 26.448,-24.53 v 0 c 0,-13.547 -10.059,-24.499 -26.445,-24.53 z"
         fill="#ffffff"
         id="path10" />
    </g>
  </g>
</svg>
