<?xml version="1.0" encoding="UTF-8" standalone="no"?>
<svg
   version="1.1"
   id="Layer_1"
   x="0px"
   y="0px"
   viewBox="0 0 1000 246.407"
   xml:space="preserve"
   sodipodi:docname="saturn.svg"
   inkscape:version="1.3.2 (091e20e, 2023-11-25, custom)"
   xmlns:inkscape="http://www.inkscape.org/namespaces/inkscape"
   xmlns:sodipodi="http://sodipodi.sourceforge.net/DTD/sodipodi-0.dtd"
   xmlns="http://www.w3.org/2000/svg"
   xmlns:svg="http://www.w3.org/2000/svg"><defs
   id="defs1" /><sodipodi:namedview
   id="namedview1"
   pagecolor="#505050"
   bordercolor="#ffffff"
   borderopacity="1"
   inkscape:showpageshadow="0"
   inkscape:pageopacity="0"
   inkscape:pagecheckerboard="1"
   inkscape:deskcolor="#505050"
   inkscape:zoom="0.91853171"
   inkscape:cx="74.575542"
   inkscape:cy="150.78412"
   inkscape:window-width="1920"
   inkscape:window-height="1017"
   inkscape:window-x="-8"
   inkscape:window-y="-8"
   inkscape:window-maximized="1"
   inkscape:current-layer="Layer_1" />
<style
   type="text/css"
   id="style185">
	.st0{display:none;}
	.st1{display:inline;}
	.st2{fill:url(#SVGID_1_);}
	.st3{fill:url(#SVGID_00000052092535525968813350000009550497609833383088_);}
	.st4{clip-path:url(#SVGID_00000181082342040067293010000018388637020180933533_);}
	.st5{clip-path:url(#SVGID_00000149345651870264290520000000432676750661307278_);fill:none;}
	.st6{fill:none;}
	.st7{fill:url(#SVGID_00000051352521261740170520000011320657040258790582_);}
	.st8{clip-path:url(#SVGID_00000030484769198135618760000003959627322700026252_);}
	.st9{clip-path:url(#SVGID_00000034806037959779467630000017437842208180834735_);}
	.st10{clip-path:url(#SVGID_00000115496972136622195830000005902093715232247687_);}
	.st11{fill:url(#SVGID_00000013889832750912877530000004798370149929542016_);}
	.st12{fill:url(#SVGID_00000051361153138220524300000013913151675452516528_);}
	.st13{clip-path:url(#SVGID_00000010308407015280359040000013733240242875511946_);}
	.st14{clip-path:url(#SVGID_00000114769369107336140710000007696718826420179646_);fill:none;}
	.st15{fill:url(#SVGID_00000087402853709725680670000015290336904369532819_);}
	.st16{clip-path:url(#SVGID_00000069393130053846784010000017296850125105134496_);}
	.st17{clip-path:url(#SVGID_00000167391829582479542610000009259237980293829809_);}
	.st18{clip-path:url(#SVGID_00000098179778657365461650000008508562589983013518_);}
	.st19{fill:#FFFFFF;}
	.st20{fill:url(#SVGID_00000089541461418837619630000000607250756732104356_);}
	.st21{fill:url(#SVGID_00000081605940909503580690000013147553382431992224_);}
	.st22{clip-path:url(#SVGID_00000078010597554142680170000013828821881340275082_);fill:#FFFFFF;}
	.st23{clip-path:url(#SVGID_00000062880726993147336570000014558505352204386486_);fill:none;}
	.st24{fill:url(#SVGID_00000091724443693085812110000001932237002745841318_);}
	.st25{clip-path:url(#SVGID_00000093178508267831408440000013798116825395614862_);fill:#FFFFFF;}
	.st26{clip-path:url(#SVGID_00000011713951316864438550000017543220797463402678_);fill:#FFFFFF;}
	.st27{clip-path:url(#SVGID_00000119804168942435723510000003149425976279155642_);}
	.st28{clip-path:url(#SVGID_00000119804168942435723510000003149425976279155642_);fill:#FFFFFF;}
	.st29{fill:url(#SVGID_00000156550217537866852620000014777158853316383905_);}
	.st30{fill:url(#SVGID_00000072267549587854350080000014699931804618603956_);}
	.st31{clip-path:url(#SVGID_00000034772617696690049350000005132414604214014091_);fill:#FFFFFF;}
	.st32{clip-path:url(#SVGID_00000109712611024986111130000008943739391487757204_);fill:none;}
	.st33{fill:url(#SVGID_00000038405579787860760990000013303813012723768466_);}
	.st34{clip-path:url(#SVGID_00000027577896596530131840000017744040129810563202_);fill:#FFFFFF;}
	.st35{clip-path:url(#SVGID_00000021119034627266930880000007783155208332737712_);fill:#FFFFFF;}
	.st36{clip-path:url(#SVGID_00000005964497842897703760000010364192977051624325_);}
	.st37{clip-path:url(#SVGID_00000005964497842897703760000010364192977051624325_);fill:#FFFFFF;}
	.st38{clip-path:url(#SVGID_00000165937997576340625420000011783078727960685716_);}
	.st39{clip-path:url(#SVGID_00000093141702440891792230000015517327766132361613_);}
	.st40{clip-path:url(#SVGID_00000052813084664382927090000018056495754119971732_);}
	.st41{clip-path:url(#SVGID_00000160891511757104500480000000561919950684807556_);}
	.st42{clip-path:url(#SVGID_00000040551308473029389190000004044410048121479590_);}
	.st43{clip-path:url(#SVGID_00000058566408728063838690000007381408114630411419_);}
	.st44{clip-path:url(#SVGID_00000064314043988248027800000007807383336194178453_);fill:#FFFFFF;}
	.st45{clip-path:url(#SVGID_00000182486636352633378100000002392042760269239704_);fill:#FFFFFF;}
	.st46{clip-path:url(#SVGID_00000153678724477406717600000017548472491396942500_);}
	.st47{clip-path:url(#SVGID_00000153678724477406717600000017548472491396942500_);fill:#FFFFFF;}
	.st48{clip-path:url(#SVGID_00000056416210828020345680000007370544623216066728_);fill:#FFFFFF;}
	.st49{clip-path:url(#SVGID_00000169539254387465623650000009174201516226242176_);fill:#FFFFFF;}
	.st50{clip-path:url(#SVGID_00000090266436443477613880000008680384513649535654_);}
	.st51{clip-path:url(#SVGID_00000090266436443477613880000008680384513649535654_);fill:#FFFFFF;}
	.st52{fill:url(#SVGID_00000158011363034232090130000008645177575533734065_);}
	.st53{fill:url(#SVGID_00000172428953541629294360000006601451257143169959_);}
	.st54{clip-path:url(#SVGID_00000080188676363300828630000001747918694830680476_);}
	.st55{clip-path:url(#SVGID_00000098213963629844186170000009147366978911073945_);fill:none;}
	.st56{fill:url(#SVGID_00000030472659800962500480000003487974485534939051_);}
	.st57{fill:url(#SVGID_00000019644371129518419700000006365057733873504682_);}
	.st58{clip-path:url(#SVGID_00000022550007792385280350000018156394101664103607_);}
	.st59{clip-path:url(#SVGID_00000045597802608147171250000011886695752737378987_);fill:none;}
	.st60{fill:url(#SVGID_00000157303727013374367010000016046355760132032905_);}
	.st61{clip-path:url(#SVGID_00000078723830286333500110000001235629777483567289_);}
	.st62{clip-path:url(#SVGID_00000147912905621440774050000003705611333181347219_);}
	.st63{clip-path:url(#SVGID_00000077294130418198695930000006338669412296886456_);}
	.st64{fill:url(#SVGID_00000017505685671252252090000002289887080204872109_);}
	.st65{clip-path:url(#SVGID_00000049208039504807543450000010602558936728408766_);}
	.st66{clip-path:url(#SVGID_00000014624603852508838960000016354840363853646221_);}
	.st67{clip-path:url(#SVGID_00000151537608501275973020000009477774421885475201_);}
	.st68{clip-path:url(#SVGID_00000046336922786800387020000012400360492225035932_);}
	.st69{clip-path:url(#SVGID_00000135649701678503770310000011161071807535417474_);}
	.st70{clip-path:url(#SVGID_00000026162157716254308440000006696230690911560594_);}
	.st71{fill:url(#SVGID_00000042718377931436136710000015697300439961782951_);}
	.st72{clip-path:url(#SVGID_00000035492778677281887660000007427135080247424897_);}
	.st73{clip-path:url(#SVGID_00000140010330954192916570000016102492324220659086_);}
	.st74{clip-path:url(#SVGID_00000114790432258512788030000013027337240435908748_);}
	.st75{fill:url(#SVGID_00000015326903791520814460000015567736450937608107_);}
	.st76{fill:url(#SVGID_00000181770526153292146740000018083957441262465721_);}
	.st77{clip-path:url(#SVGID_00000054264835243938328460000017393872424037337745_);}
	.st78{clip-path:url(#SVGID_00000052824147577421032480000003065807643186925497_);fill:none;}
	.st79{clip-path:url(#SVGID_00000041992685109905401920000007454995520985107646_);}
	.st80{clip-path:url(#SVGID_00000085968633847990202210000008589561636360330907_);}
	.st81{clip-path:url(#SVGID_00000120551453946734271690000011667865222371264170_);}
	.st82{fill:url(#SVGID_00000114045908635663940960000013435849501813951161_);}
	.st83{clip-path:url(#SVGID_00000072993738891990491030000005169991449299469454_);}
	.st84{clip-path:url(#SVGID_00000154424869973400524570000014804612358064784524_);}
	.st85{clip-path:url(#SVGID_00000026862278407081895240000005715365201873707439_);}
	.st86{clip-path:url(#SVGID_00000116949038621087085140000009901106486446601876_);}
	.st87{clip-path:url(#SVGID_00000168096494422271633050000007140241003304621188_);}
	.st88{clip-path:url(#SVGID_00000045609967907153686600000014278193735747376030_);}
	.st89{clip-path:url(#SVGID_00000031895928531034269720000005204958188834410645_);}
	.st90{clip-path:url(#SVGID_00000037651106224013993300000010518546544833445781_);}
	.st91{clip-path:url(#SVGID_00000060729580039545334700000003739860636758479533_);}
	.st92{fill:url(#SVGID_00000116203726415567240220000003003402116852036234_);}
	.st93{clip-path:url(#SVGID_00000036945186500432301260000016225190708191333783_);}
	.st94{clip-path:url(#SVGID_00000142865551488638286180000011242641814870552241_);}
	.st95{clip-path:url(#SVGID_00000105388018212357095560000010611833871962739852_);}
	.st96{clip-path:url(#SVGID_00000117641318825192671870000004088707181429359544_);}
	.st97{clip-path:url(#SVGID_00000026861726227612845530000013840599758448374202_);fill:#FFFFFF;}
	.st98{clip-path:url(#SVGID_00000047781138176547346320000007996361946519749309_);}
	.st99{clip-path:url(#SVGID_00000018945444007977931100000007429940031229498535_);}
	.st100{clip-path:url(#SVGID_00000030466405216242572840000004735488181224402862_);fill:#FFFFFF;}
	.st101{clip-path:url(#SVGID_00000021096776671622587260000006466034412178883509_);}
	.st102{fill:url(#SVGID_00000032635862589984555100000002758885933696629918_);}
	.st103{fill:url(#SVGID_00000022525742150729396240000002201547793823225494_);}
	.st104{clip-path:url(#SVGID_00000096053560563983189360000003885780821750198449_);}
	.st105{clip-path:url(#SVGID_00000017475680219239407580000003160852406731587245_);fill:none;}
	.st106{clip-path:url(#SVGID_00000132799823432926100690000011301829647802396554_);}
	.st107{clip-path:url(#SVGID_00000120558774762282286400000017373940925425197983_);}
	.st108{clip-path:url(#SVGID_00000182499462272920047890000009756759484124192447_);}
	.st109{fill:url(#SVGID_00000106837658992482566190000015031948349507561131_);}
	.st110{fill:url(#SVGID_00000060000918199620852040000011110788566642438326_);}
	.st111{fill:url(#SVGID_00000165931971672688037180000015484467208602473387_);}
	.st112{clip-path:url(#SVGID_00000114752831414873899780000013900841618171161252_);}
	.st113{clip-path:url(#SVGID_00000115484265779819574820000007875200864787918015_);fill:none;}
	.st114{fill:url(#SVGID_00000116933599823127316940000016445091429965754755_);}
	.st115{fill:url(#SVGID_00000162340365314001401580000010662970604040687802_);}
	.st116{clip-path:url(#SVGID_00000061433549316852232060000014483363313410319028_);}
	.st117{clip-path:url(#SVGID_00000168082517182781241340000010556364243423978683_);fill:none;}
	.st118{clip-path:url(#SVGID_00000044870563284209792720000006477728524227772062_);}
	.st119{clip-path:url(#SVGID_00000181784035867249358420000008389369770215886509_);}
	.st120{clip-path:url(#SVGID_00000013180885998691250390000017148988529682011051_);}
	.st121{fill:url(#SVGID_00000104690069846539251390000014944594134065411750_);}
	.st122{fill:url(#SVGID_00000003102542548969261100000003426129922158321794_);}
	.st123{fill:url(#SVGID_00000096059804944646455110000001746635819679747716_);}
	.st124{clip-path:url(#SVGID_00000057148615886396105210000003406591630580441002_);}
	.st125{clip-path:url(#SVGID_00000034083846811926228520000010441710046834620854_);fill:none;}
	.st126{clip-path:url(#SVGID_00000034062712226207277720000011694484531460598159_);}
	.st127{clip-path:url(#SVGID_00000063602725284969168280000006099585299437284270_);}
	.st128{clip-path:url(#SVGID_00000030460535133812303590000017671000389764478604_);}
	.st129{fill:url(#SVGID_00000034086868428717430230000017991096386027149700_);}
	.st130{fill:url(#SVGID_00000129914591614002415800000002472988951372192401_);}
	.st131{fill:url(#SVGID_00000162323868472899737200000017250912651139417218_);}
	.st132{clip-path:url(#SVGID_00000011023583609260002090000017803852667289790134_);}
	.st133{clip-path:url(#SVGID_00000044896408295260736150000015716087276326860700_);fill:none;}
	.st134{clip-path:url(#SVGID_00000104676056498721862990000004545184053406115205_);}
	.st135{clip-path:url(#SVGID_00000172436179828790443990000003125488194104924297_);}
	.st136{clip-path:url(#SVGID_00000144301624543065010960000000638826629747662245_);}
	.st137{fill:url(#SVGID_00000111155258379623542880000013943270856536693156_);}
	.st138{fill:url(#SVGID_00000182501638099191090920000014972466529458712214_);}
	.st139{fill:url(#SVGID_00000054241000087843356210000006404203153713942440_);}
	.st140{clip-path:url(#SVGID_00000127742309737976183950000012327255603818880928_);}
	.st141{clip-path:url(#SVGID_00000107579569843725510440000011577369606340904086_);fill:none;}
	.st142{clip-path:url(#SVGID_00000029042877748183320730000000368131043763836289_);}
	.st143{clip-path:url(#SVGID_00000057836169487440782640000018108183874542580399_);}
	.st144{clip-path:url(#SVGID_00000052081563020045591160000009854689798498653574_);}
	.st145{fill:url(#SVGID_00000015329107534198735550000008753687951247345840_);}
	.st146{fill:url(#SVGID_00000083778564227968336440000004860301191160455358_);}
	.st147{fill:url(#SVGID_00000085229795120981054000000008480761400694193595_);}
	.st148{clip-path:url(#SVGID_00000067220442078196095740000013123674806383815808_);}
	.st149{clip-path:url(#SVGID_00000067956208021165007830000006616807946603266222_);fill:none;}
	.st150{clip-path:url(#SVGID_00000106863821747044207440000003311766391310800559_);}
	.st151{clip-path:url(#SVGID_00000150807154655115168280000007797891811687018629_);fill:#FFFFFF;}
	.st152{clip-path:url(#SVGID_00000176008803737078602100000009234104075020058030_);}
	.st153{fill:url(#SVGID_00000023272688768940795940000017913831159965401243_);}
	.st154{fill:url(#SVGID_00000176753122002495856920000010278751442905639058_);}
	.st155{fill:url(#SVGID_00000145052081515431003800000001704650542084292251_);}
	.st156{clip-path:url(#SVGID_00000079470694453021469890000004116571868763452557_);fill:#FFFFFF;}
	.st157{clip-path:url(#SVGID_00000067198693446251186590000017572928264032845243_);fill:none;}
	.st158{clip-path:url(#SVGID_00000077306790578185444720000000220928480468514688_);}
	.st159{clip-path:url(#SVGID_00000160180124010100214620000012398849337866724243_);fill:#FFFFFF;}
	.st160{clip-path:url(#SVGID_00000162314595006173481630000014610734353999024563_);}
	.st161{fill:url(#SVGID_00000065776048660688843660000015266886789205720504_);}
	.st162{fill:url(#SVGID_00000182508625658658450690000014794552091456440754_);}
	.st163{fill:url(#SVGID_00000000913218493340162320000003207421039191867325_);}
	.st164{clip-path:url(#SVGID_00000098201236908764930420000018158574418482653593_);fill:#FFFFFF;}
	.st165{clip-path:url(#SVGID_00000180367826289304871010000002664529823013728386_);fill:none;}
</style>

<g
   id="g361"
   transform="matrix(0.31949469,0,0,0.31949469,-192.1072,7.9053004e-4)">
	<g
   id="g302">
		<g
   id="g300">
			<g
   id="g298">
				<g
   id="g279">
					
					
				</g>
				
					<linearGradient
   id="SVGID_00000074413033692213908000000008716112593897293195_"
   gradientUnits="userSpaceOnUse"
   x1="1924.9213"
   y1="771.24438"
   x2="1924.9213"
   y2="4.5474741e-13">
					<stop
   offset="0.3079"
   style="stop-color:#000000"
   id="stop281" />
					<stop
   offset="0.39969999"
   style="stop-color:#1b0000;stop-opacity:1;"
   id="stop283" />
					<stop
   offset="0.59759998"
   style="stop-color:#610000;stop-opacity:1;"
   id="stop285" />
					<stop
   offset="0.88380003"
   style="stop-color:#ce0000;stop-opacity:1;"
   id="stop287" />
					<stop
   offset="1"
   style="stop-color:#fd0000;stop-opacity:1;"
   id="stop289" />
				</linearGradient>
				<path
   style="fill:#ffffff"
   d="m 1987.2,6.1 c 2.9,-1.5 6.3,-3.1 10.2,-4.9 12.8,-6 23,12 11.3,19.9 -4.1,2.8 -7.8,5.3 -10.8,7.4 -37.7,26.4 -70.7,57.5 -70.7,162.7 0,132.1 109.3,260.9 109.3,356.6 0,74.3 -21,142.4 -185.7,222.3 -5.4,2.6 -11.9,0.6 -14.9,-4.6 v 0 c -3.2,-5.5 -1.1,-12.6 4.5,-15.6 65.8,-35.2 85.1,-108.1 82.3,-170.7 -5.8,-130.2 -111.3,-242.2 -109.3,-349 1.2,-63.7 26.5,-149.9 173.8,-224.1 z"
   id="path292" />
				<path
   d="m 1884.3,536.8 c -9.3,-3.5 -28.3,-13.5 -40.2,-39.9 L 1713.6,207.5 c -5.5,-12.3 -22.8,-12.8 -29.1,-0.9 L 1587.9,390 c -5,9.5 -14.9,15.5 -25.6,15.5 h -115.9 -3.9 c -3.9,0 -7.8,3.1 -8.4,6.9 -0.8,5 2.8,9.2 7.6,9.6 32.2,2.9 51.5,24.4 51.2,59.1 -0.2,32 -26.9,58.2 -59,58.2 h -8.4 c -85.8,0 -89.5,-98.6 -89.5,-120.1 0,-25.1 0,-75.4 0,-75.4 0,-37 14.9,-102 87.2,-102 67.5,0 105.5,31.1 136.4,72.3 5.1,6.8 15.8,1.2 13.2,-6.9 l -27.1,-84.9 c -2.6,-8.2 -12.2,-11.8 -19.6,-7.3 -19.9,12.2 -31.6,10.2 -31.6,10.2 -9.8,0.3 -41,-8.6 -78.9,-8.6 -60.5,0 -109.3,24 -142.8,56.3 -3.3,3.2 -8.8,2.1 -10.5,-2.2 l -15,-36.4 c -3.1,-7.5 -7.1,-12.5 -15.3,-12.5 h -172.2 v -0.1 h -89.6 c -5.7,0 -11.3,-0.2 -17,-0.5 -30.7,-1.7 -138.6,-7.3 -193.8,-7.3 -69.2,0 -123.4,21.7 -128.9,72.7 -4.1,38.4 22.5,58.4 37.8,72.4 8.3,7.6 47.1,32.2 67.1,41.4 20.8,9.6 103.8,51.2 95.2,84.2 -8.6,32.7 -36.6,40.7 -69,40.7 -50.8,0 -105.4,-42.1 -145.8,-79.8 -7,-6.6 -17.9,1.6 -13.5,10.2 16.7,32.7 38.1,72.4 52.1,93.4 4,5.9 11.2,8.8 18.2,7 15.1,-3.8 34.6,-5.8 46.5,-5.2 15.3,0.7 47.2,4.9 61.2,4.9 116.4,0 152.9,-30.6 156.7,-83.7 5.2,-73 -81.9,-121.6 -135,-142.9 -47.4,-19.1 -65.8,-47.9 -63.8,-62.2 3.3,-24.8 26.9,-29 46.7,-28.2 61.2,2.3 176.7,32.2 176.7,74.2 0,0 0,186.7 0,194.9 0,10.9 -11.9,30.5 -26.9,30.5 h -0.3 c -2.7,0 -5.4,1 -7.4,2.9 -5.2,5.2 -1.6,11.4 3.4,11.4 h 65 v 0 h 64.4 183.8 c 5.9,0 11.1,-3.5 13.4,-9 l 10,-24.4 c 1.9,-4.7 7.9,-6.1 11.7,-2.7 32.8,29.6 80.8,48.2 146.4,48.2 15.3,0 47,-4.2 61.8,-9.6 4.7,-1.7 9.7,-2.6 14.7,-2.6 h 122.9 19.8 c 7.3,0 10.8,-9.1 5.3,-14 -2.4,-2.1 -4.6,-4.1 -6.1,-5.5 -11.7,-10.6 -11.2,-17.8 -11.5,-23.9 -0.3,-6 1,-12 3.8,-17.4 l 87.1,-165.4 74.4,165.1 c 2.5,5.5 3.7,11.6 3.2,17.6 -0.1,0.8 -0.1,1.5 -0.2,2 -1.4,7.8 -8.4,23.5 -21.5,23.5 h -2.1 c -3.2,0 -6.4,1.1 -8.8,3.2 -7.3,6.5 -2.8,14.7 3.6,14.7 h 110.1 c 5.1,0 9.1,-4.6 8.1,-9.8 -0.5,-2.6 -2.6,-4.9 -5.4,-5.9 z M 1244.9,306.9 c -15,23.6 -23.1,48.6 -23.1,70.6 0,29.3 5.4,57.9 16.8,83.6 2.5,5.6 1.4,12.2 -2.9,16.6 -21.1,21.4 -67.2,51.2 -133.1,51.2 h -16.1 c -14.7,0 -26.6,-11.9 -26.6,-26.6 v -89.7 -4.8 c 0,-5 7.5,-11.2 15.9,-9.5 12.9,2.5 35.6,10.6 53.7,21.1 12.7,7.4 24.2,15.1 37.4,26 5.8,4.8 14.6,0.6 14.6,-6.9 v -28.2 -55.7 -28.2 c 0,-7.5 -8.8,-11.7 -14.6,-6.9 -13.2,10.9 -24.7,18.6 -37.4,26 -18.1,10.4 -41.5,21.4 -54.3,24.4 -9.9,2.3 -13.4,-1.6 -15.3,-5.3 v -5.4 -88 c 0,-14 11.4,-25.4 25.4,-25.4 h 32.6 c 53.4,0 102.1,30.6 125.5,50.8 2.9,2.5 3.6,7 1.5,10.3 z"
   id="path294"
   style="fill:#ffffff" />
				<path
   d="m 3730.9,225.6 c -0.8,-2.3 -3.1,-3.8 -5.6,-3.8 h -25.6 -48.1 -25.6 c -2.5,0 -4.8,1.5 -5.6,3.8 -1.1,3.2 0.7,6.4 3.6,7.4 9.2,3 31.3,12.7 31.3,35.9 V 408 c 0,5.3 -6.2,8.2 -10.3,4.8 L 3498.8,291.5 c -45.6,-37.9 -110.2,-63.1 -152.9,-76.9 -9.4,-3 -15.9,9.4 -8,15.4 1.4,1.1 2.8,2.1 4.3,3.2 48.7,36.6 53.9,89.1 53.9,95.1 v 186.8 9 c 0,7 -5.7,12.7 -12.7,12.7 -16.3,0 -52.8,-26.5 -71.4,-46 -17.5,-18.3 -25.9,-43.5 -45.5,-66.6 -15.6,-18.3 -28.9,-25.1 -28.9,-25.1 98.3,0 101.2,-79.7 101.2,-88.6 0,-13.3 0,-89 -123,-89 h -283.9 -48.3 c -2.5,0 -4.8,1.5 -5.6,3.8 -1.1,3.2 0.7,6.5 3.6,7.4 9.2,3 31.3,12.7 31.3,35.9 v 175 c 0,60.5 -42.3,80.7 -76.2,80.7 -61.8,0 -85.5,-36.4 -85.5,-82.2 v -26.5 0 -147 c 0,-23.2 22.1,-32.9 31.3,-35.9 2.4,-0.8 4,-2.9 4,-5.4 v -0.1 c 0,-3.1 -2.5,-5.7 -5.7,-5.7 h -110.9 -17 -223.4 -113.8 c -6.9,0 -13.3,4 -16.3,10.2 l -18.3,37.9 c -3.1,6.5 4.3,12.9 10.3,8.9 24.5,-16.6 65.7,-35.7 126,-38 6.6,-0.2 12.1,5.1 12.1,11.7 v 240 c 0,11.4 -4.2,20.2 -9.9,26.9 -4.4,5.2 -11,8.2 -17.9,8.2 h -14.8 c -4.8,0 -9.6,-1.3 -13.7,-4 -9.4,-6.1 -18.3,-14.7 -23.7,-26.7 L 2219,207.2 c -5.6,-12.3 -22.8,-12.8 -29.1,-0.9 l -135.8,257.7 -39.2,74.3 2.7,14.2 h 39.4 7 85.5 v 0 c 7.3,0 10.8,-9.1 5.3,-14 0,0 -0.1,0 -0.1,-0.1 -2.4,-2.1 -4.5,-4 -6,-5.4 -11.6,-10.4 -11.2,-17.6 -11.5,-23.7 -0.3,-6.1 1,-12.2 3.8,-17.6 l 87.2,-165.4 74.4,165.1 c 2.5,5.5 3.7,11.6 3.2,17.6 -0.1,0.8 -0.1,1.5 -0.2,2 -1.4,7.8 -8.4,23.5 -21.5,23.5 h -0.2 c -2.6,0 -5.2,0.8 -7.3,2.4 -8.6,6.6 -4,15.5 2.6,15.5 h 109.7 6.4 86.7 25.6 52.4 c 4.5,0 8.4,-3.4 8.6,-7.9 0.2,-3.6 -2,-7 -5.3,-8.2 -11,-4.2 -35.3,-16.7 -35.3,-44.1 v -240 c 0,-6.8 5.5,-12 12.3,-11.7 46.6,1.8 81.8,13.6 106.6,26.6 4,2.1 6.5,6.2 6.5,10.7 v 154.6 h 0.4 c 4,71 37.7,125.6 161.2,125.6 71.6,0 138.7,-37.5 138.7,-106.6 0,-8.5 0,-177.2 0,-177.2 0,-10.5 3.3,-17.9 7.5,-23 6.1,-7.5 15.5,-11.5 25.2,-11.5 h 14.6 c 9.7,0 19.1,4 25.2,11.5 4.2,5.2 7.5,12.6 7.5,23 v 214.5 c 0,31.9 -25.3,43.9 -37.1,47.8 -2.8,0.9 -5.1,3.2 -5.7,6.2 -1,5.2 2.9,9.8 8,9.8 h 52.8 59.6 55.2 c 3.4,0 6.6,-2 7.8,-5.2 1.7,-4.6 -0.8,-9.3 -5,-10.7 -11.6,-3.8 -37.4,-15.8 -37.4,-47.9 V 285.4 261.2 c 0,-18.2 15.6,-24.8 26.3,-24.8 h 30.7 c 28.6,0 57,24.1 57,64.3 0,59 -38.4,73.3 -54.1,73.3 -10.5,0 -18.7,0.2 -27.4,-3 0,0 -0.1,0 -0.1,-0.1 -5.5,-2.6 -11.4,2.5 -9.6,8.3 0.1,0.3 0.1,0.5 0.2,0.5 9.2,31.2 25.8,78.9 48.4,109.3 35.1,47.3 101.7,85 213.4,85 h 48 c 3,0 5.8,-1.8 6.7,-4.6 1.3,-3.9 -0.9,-7.8 -4.5,-8.9 -9.6,-2.9 -30,-11.6 -30,-33.3 v -157 c 0,-5.3 6.2,-8.2 10.3,-4.8 l 232,192.6 c 6.7,5.5 16.7,0.8 16.7,-7.9 V 268.9 c 0,-23.2 22.1,-32.9 31.3,-35.9 3,-0.9 4.8,-4.1 3.7,-7.4 z"
   id="path296"
   style="fill:#ffffff" />
			</g>
		</g>
	</g>
	
</g>
</svg>
