<?xml version="1.0" encoding="UTF-8" standalone="no"?>
<!-- Generator: Gravit.io -->

<svg
   style="isolation:isolate"
   viewBox="0 0 306.2 80.684"
   width="306.20001pt"
   height="80.683998pt"
   version="1.1"
   id="svg11"
   sodipodi:docname="sega.svg"
   inkscape:version="1.3.2 (091e20e, 2023-11-25, custom)"
   xmlns:inkscape="http://www.inkscape.org/namespaces/inkscape"
   xmlns:sodipodi="http://sodipodi.sourceforge.net/DTD/sodipodi-0.dtd"
   xmlns="http://www.w3.org/2000/svg"
   xmlns:svg="http://www.w3.org/2000/svg">
  <sodipodi:namedview
     id="namedview11"
     pagecolor="#505050"
     bordercolor="#ffffff"
     borderopacity="1"
     inkscape:showpageshadow="0"
     inkscape:pageopacity="0"
     inkscape:pagecheckerboard="1"
     inkscape:deskcolor="#505050"
     inkscape:document-units="pt"
     inkscape:zoom="3.1817438"
     inkscape:cx="204.13334"
     inkscape:cy="65.844396"
     inkscape:window-width="1920"
     inkscape:window-height="1017"
     inkscape:window-x="-8"
     inkscape:window-y="-8"
     inkscape:window-maximized="1"
     inkscape:current-layer="svg11" />
  <defs
     id="defs1">
    <clipPath
       id="_clipPath_fe9ALpEkVrtP3Nw5nEj6myiOY5GTGy4j">
      <rect
         width="306.20001"
         height="98.683998"
         id="rect1"
         x="0"
         y="0" />
    </clipPath>
  </defs>
  <g
     clip-path="url(#_clipPath_fe9ALpEkVrtP3Nw5nEj6myiOY5GTGy4j)"
     id="g11">
    <g
       id="g10">
      <path
         d="M 21.009,79.879 55.92,79.844 c 14.283,0 25.859,-11.54 25.859,-25.76 0,-14.246 -11.576,-25.787 -25.859,-25.787 l -9.068,0.049 c -0.714,0 -1.293,-0.585 -1.293,-1.307 0,-0.721 0.579,-1.307 1.293,-1.307 l 34.849,0.006 0.014,-10.932 H 46.846 c -6.743,0 -12.227,5.476 -12.227,12.206 0,6.734 5.484,12.189 12.227,12.189 l 9.109,0.12 c 8.183,0 14.806,6.6 14.806,14.743 0,8.149 -6.621,14.763 -14.806,14.763 H 21.022 Z"
         fill="#ffffff"
         id="path1" />
      <path
         d="m 21.022,66.26 h 34.933 c 6.763,0 12.233,-5.454 12.233,-12.197 0,-6.735 -5.47,-12.184 -12.233,-12.184 l -9.109,-0.098 c -8.171,0 -14.799,-6.608 -14.799,-14.771 0,-8.14 6.628,-14.749 14.799,-14.749 L 81.715,12.254 81.701,1.279 H 46.852 c -14.268,0 -25.858,11.527 -25.858,25.76 0,14.234 11.59,25.766 25.858,25.766 l 9.018,0.015 c 0.686,0 1.266,0.559 1.266,1.264 0,0.694 -0.58,1.251 -1.266,1.251 l -34.861,0.029 z"
         fill="#ffffff"
         id="path2" />
      <path
         d="m 108.846,68.897 c -6.057,0 -11.019,-4.827 -11.019,-10.99 V 23.031 c 0,-5.929 4.962,-10.806 11.019,-10.806 l 37.264,0.007 V 1.279 h -37.264 c -12.128,0 -21.951,9.788 -21.951,21.873 v 34.755 c 0,12.087 9.823,21.889 21.951,21.889 l 37.108,0.015 -0.006,-10.927 z"
         fill="#ffffff"
         id="path3" />
      <path
         d="m 100.499,23.152 c 0,-4.621 3.718,-8.368 8.347,-8.368 h 37.264 v 10.969 h -32.105 c -2.573,0 -2.608,2.551 -2.608,2.551 h 26.784 v 10.918 h -37.695 z"
         fill="#ffffff"
         id="path4" />
      <path
         d="m 108.846,66.241 c -4.616,0 -8.361,-3.724 -8.361,-8.334 V 41.822 h 37.696 v 10.941 h -26.786 c 0.036,2.572 2.608,2.585 2.608,2.585 h 31.95 l -0.007,10.878 z"
         fill="#ffffff"
         id="path5" />
      <path
         d="m 172.224,68.869 c -6.035,0 -10.968,-4.918 -10.968,-10.962 V 23.15 c 0,-6.049 4.897,-10.925 10.94,-10.925 h 36.093 V 1.279 h -36.178 c -12.12,0 -21.944,9.788 -21.944,21.873 v 34.755 c 0,12.087 9.908,21.889 22.029,21.889 l 36.093,0.015 V 28.304 H 177.27 v 10.918 h 20.056 v 29.647 z"
         fill="#ffffff"
         id="path6" />
      <path
         d="m 163.828,57.907 c 0,4.631 3.746,8.397 8.368,8.397 H 194.74 V 41.809 h -17.442 v 10.954 h 6.473 l 0.02,2.572 h -6.444 c -1.407,0 -2.558,-1.165 -2.558,-2.572 l -0.058,-24.466 c 0,0 -0.008,-2.544 2.587,-2.608 H 208.3 l -0.014,-10.912 -36.093,0.007 c -4.621,0 -8.367,3.747 -8.367,8.368 v 34.755"
         fill="#ffffff"
         id="path7" />
      <path
         d="m 242.203,14.621 c 0.486,-1.391 1.808,-2.395 3.37,-2.395 1.564,0 2.898,1.004 3.371,2.395 l 17.521,51.76 H 240.81 l 0.028,-12.177 h 8.574 l -3.86,-11.469 -12.573,37.066 h -12.932 z"
         fill="#ffffff"
         id="path8" />
      <path
         d="m 269.998,68.869 h -29.145 v 10.932 h 44.353 L 262.139,11.554 C 260.118,4.897 253.454,0 245.566,0 c -7.901,0 -14.543,4.876 -16.58,11.528 l -23.279,68.275 h 11.612 L 239.92,13.435 c 0.918,-2.198 3.082,-3.746 5.626,-3.746 2.53,0 4.706,1.548 5.632,3.732 z"
         fill="#ffffff"
         id="path9" />
    </g>
  </g>
</svg>
