<?xml version="1.0" encoding="UTF-8" standalone="no"?>
<svg
   version="1.1"
   id="svg95"
   sodipodi:docname="snk.svg"
   inkscape:version="1.3.2 (091e20e, 2023-11-25, custom)"
   xmlns:inkscape="http://www.inkscape.org/namespaces/inkscape"
   xmlns:sodipodi="http://sodipodi.sourceforge.net/DTD/sodipodi-0.dtd"
   xmlns="http://www.w3.org/2000/svg"
   xmlns:svg="http://www.w3.org/2000/svg"
   xmlns:rdf="http://www.w3.org/1999/02/22-rdf-syntax-ns#"
   xmlns:cc="http://creativecommons.org/ns#"
   xmlns:dc="http://purl.org/dc/elements/1.1/">
  <metadata
     id="metadata101">
    <rdf:RDF>
      <cc:Work
         rdf:about="">
        <dc:format>image/svg+xml</dc:format>
        <dc:type
           rdf:resource="http://purl.org/dc/dcmitype/StillImage" />
        <dc:title>mainlogo</dc:title>
      </cc:Work>
    </rdf:RDF>
  </metadata>
  <defs
     id="defs99">
    <clipPath
       clipPathUnits="userSpaceOnUse"
       id="clipPath909">
      <g
         style="fill:#aa8800;stroke:none"
         id="use911"
         inkscape:label="Clip">
        <g
           id="g1939"
           transform="matrix(2.0794317,0,0,2.0794317,186.00321,-131.99158)"
           style="fill:#aa8800;stroke:none">
          <path
             d="m -146.65192,109.06017 v 4.30384 h -1.16463 v -4.30384 h -1.77166 v -0.88128 h 4.77092 v 0.88128 z"
             style="font-style:normal;font-variant:normal;font-weight:normal;font-stretch:normal;font-size:medium;line-height:1.25;font-family:Eurostile;-inkscape-font-specification:Eurostile;letter-spacing:0px;word-spacing:0px;fill:#aa8800;fill-opacity:1;stroke:none;stroke-width:0.35733205;stroke-miterlimit:4;stroke-dasharray:none;stroke-opacity:1"
             id="path1925"
             inkscape:connector-curvature="0" />
          <path
             d="m -141.67415,108.13331 q 1.67275,0 2.15389,0.47103 0.48114,0.46723 0.48114,2.09684 0,1.78155 -0.48564,2.24498 -0.48114,0.46344 -2.33824,0.46344 -1.67275,0 -2.16288,-0.45584 -0.49014,-0.45963 -0.49014,-2.01707 0,-1.85373 0.48114,-2.32856 0.48114,-0.47482 2.36073,-0.47482 z m -0.0899,0.84329 q -1.17362,0 -1.37147,0.25451 -0.19785,0.25451 -0.19785,1.76256 0,1.1168 0.22933,1.34471 0.23382,0.22792 1.36697,0.22792 1.08369,0 1.29953,-0.25451 0.21584,-0.2583 0.21584,-1.55743 0,-1.30293 -0.20685,-1.53845 -0.20235,-0.23931 -1.3355,-0.23931 z"
             style="font-style:normal;font-variant:normal;font-weight:normal;font-stretch:normal;font-size:medium;line-height:1.25;font-family:Eurostile;-inkscape-font-specification:Eurostile;letter-spacing:0px;word-spacing:0px;fill:#aa8800;fill-opacity:1;stroke:none;stroke-width:0.35733205;stroke-miterlimit:4;stroke-dasharray:none;stroke-opacity:1"
             id="path1927"
             inkscape:connector-curvature="0" />
          <path
             d="m -134.53799,112.36877 h -2.64852 l -0.38221,0.99524 h -1.23208 l 2.04147,-5.18512 h 1.74919 l 2.07294,5.18512 h -1.20959 z m -0.2698,-0.72554 -1.06121,-2.70082 -1.04322,2.70082 z"
             style="font-style:normal;font-variant:normal;font-weight:normal;font-stretch:normal;font-size:medium;line-height:1.25;font-family:Eurostile;-inkscape-font-specification:Eurostile;letter-spacing:0px;word-spacing:0px;fill:#aa8800;fill-opacity:1;stroke:none;stroke-width:0.35733205;stroke-miterlimit:4;stroke-dasharray:none;stroke-opacity:1"
             id="path1929"
             inkscape:connector-curvature="0" />
          <path
             d="m -132.40659,113.36401 v -5.18512 h 2.47314 0.30577 q 1.24557,0 1.67725,0.36847 0.43617,0.36466 0.43617,1.41309 0,1.04082 -0.41369,1.38269 -0.41369,0.34188 -1.67274,0.34188 l -0.2698,0.004 h -1.37148 v 1.67519 z m 1.16462,-2.50329 h 1.32651 q 0.79141,0 1.00275,-0.15195 0.21584,-0.15574 0.21584,-0.72933 0,-0.65716 -0.17987,-0.81291 -0.17537,-0.15954 -0.92181,-0.15954 h -1.44342 z"
             style="font-style:normal;font-variant:normal;font-weight:normal;font-stretch:normal;font-size:medium;line-height:1.25;font-family:Eurostile;-inkscape-font-specification:Eurostile;letter-spacing:0px;word-spacing:0px;fill:#aa8800;fill-opacity:1;stroke:none;stroke-width:0.35733205;stroke-miterlimit:4;stroke-dasharray:none;stroke-opacity:1"
             id="path1931"
             inkscape:connector-curvature="0" />
          <path
             d="m -125.61218,108.17889 v 4.30384 h 2.87784 v 0.88128 h -4.04247 v -5.18512 z"
             style="font-style:normal;font-variant:normal;font-weight:normal;font-stretch:normal;font-size:medium;line-height:1.25;font-family:Eurostile;-inkscape-font-specification:Eurostile;letter-spacing:0px;word-spacing:0px;fill:#aa8800;fill-opacity:1;stroke:none;stroke-width:0.35733205;stroke-miterlimit:4;stroke-dasharray:none;stroke-opacity:1"
             id="path1933"
             inkscape:connector-curvature="0" />
          <path
             d="m -117.78215,112.36877 h -2.64851 l -0.38222,0.99524 h -1.23208 l 2.04147,-5.18512 h 1.74919 l 2.07295,5.18512 h -1.20959 z m -0.2698,-0.72554 -1.0612,-2.70082 -1.04322,2.70082 z"
             style="font-style:normal;font-variant:normal;font-weight:normal;font-stretch:normal;font-size:medium;line-height:1.25;font-family:Eurostile;-inkscape-font-specification:Eurostile;letter-spacing:0px;word-spacing:0px;fill:#aa8800;fill-opacity:1;stroke:none;stroke-width:0.35733205;stroke-miterlimit:4;stroke-dasharray:none;stroke-opacity:1"
             id="path1935"
             inkscape:connector-curvature="0" />
          <path
             d="m -109.66276,108.17889 v 5.18512 h -1.97402 l -1.75368,-2.84517 q -0.1304,-0.21272 -0.4092,-0.74453 l -0.19785,-0.37226 -0.19335,-0.37227 h -0.045 l 0.018,0.34188 0.0135,0.33808 0.009,0.67995 v 2.97432 h -1.16463 v -5.18512 h 1.97403 l 1.5963,2.62865 q 0.21134,0.34947 0.49013,0.84709 l 0.23383,0.42165 0.23382,0.42544 h 0.0405 l -0.0135,-0.33428 -0.0135,-0.33427 -0.009,-0.66856 v -2.98572 z"
             style="font-style:normal;font-variant:normal;font-weight:normal;font-stretch:normal;font-size:medium;line-height:1.25;font-family:Eurostile;-inkscape-font-specification:Eurostile;letter-spacing:0px;word-spacing:0px;fill:#aa8800;fill-opacity:1;stroke:none;stroke-width:0.35733205;stroke-miterlimit:4;stroke-dasharray:none;stroke-opacity:1"
             id="path1937"
             inkscape:connector-curvature="0" />
        </g>
      </g>
    </clipPath>
  </defs>
  <sodipodi:namedview
     pagecolor="#ffffff"
     bordercolor="#666666"
     borderopacity="1"
     objecttolerance="10"
     gridtolerance="10"
     guidetolerance="10"
     inkscape:pageopacity="0"
     inkscape:pageshadow="2"
     inkscape:window-width="1920"
     inkscape:window-height="1017"
     id="namedview97"
     showgrid="false"
     inkscape:pagecheckerboard="true"
     inkscape:zoom="1.3948125"
     inkscape:cx="95.711789"
     inkscape:cy="124.38948"
     inkscape:window-x="-8"
     inkscape:window-y="-8"
     inkscape:window-maximized="1"
     inkscape:current-layer="svg95"
     inkscape:showpageshadow="0"
     inkscape:deskcolor="#505050" />
  <title
     id="title70">mainlogo</title>
  <path
     d="m 1.9610228,80.55477 c 0,20.52127 13.6808882,37.13405 30.6191902,37.13405 h 85.017217 c 1.9544,0 3.90864,1.95439 3.90864,4.56016 0,2.60606 -1.62864,4.56032 -3.90864,4.56032 H 1.6354278 v 32.8998 H 131.27822 c 16.93838,0 30.61918,-16.93839 30.61918,-37.45966 0,-20.52128 -13.6808,-37.45966 -30.61918,-37.45966 H 46.58676 c -1.954555,0 -3.908799,-1.9544 -3.908799,-4.560164 0,-2.605916 1.628636,-4.560317 3.908799,-4.560317 H 161.57118 V 43.420726 H 32.585646 c -16.938263,0 -30.619151,16.612773 -30.619151,37.134044 z"
     id="path826"
     inkscape:connector-curvature="0"
     style="fill:#ffffff;stroke-width:1.51023841" />
  <path
     d="M 171.02225,43.420726 V 159.05909 h 40.71754 V 86.418724 l 77.52659,72.640366 h 42.34556 V 43.420726 H 290.89441 V 115.73547 L 213.36784,43.420726 Z"
     id="path828"
     inkscape:connector-curvature="0"
     style="fill:#ffffff;stroke-width:1.51023841" />
  <path
     d="M 381.77604,94.236472 V 43.420726 H 340.40757 V 159.05909 h 41.36847 v -51.14152 l 65.80108,51.14152 h 53.09545 l -74.92142,-57.65624 74.92142,-57.982124 h -53.09545 z"
     id="path830"
     inkscape:connector-curvature="0"
     style="fill:#ffffff;stroke-width:1.51023841" />
</svg>
